<svg width="24" height="24" viewBox="0 0 24 24" fill="none" xmlns="http://www.w3.org/2000/svg">
<path fill-rule="evenodd" clip-rule="evenodd" d="M10.1242 6.42338C10.6046 6.41377 11.0794 6.52822 11.5027 6.75569L11.5211 6.768L16.4418 9.57169C16.8678 9.8128 17.2246 10.1612 17.4744 10.5822C17.7241 11.0033 17.8594 11.4823 17.8667 11.9718C17.8741 12.4613 17.7532 12.9442 17.5162 13.3725C17.2792 13.8009 16.9342 14.1598 16.5156 14.4135L16.4935 14.4258L11.5753 17.2308H11.5728C11.1479 17.476 10.6658 17.6049 10.1752 17.6046C9.68452 17.6042 9.20264 17.4746 8.77802 17.2288C8.3534 16.983 8.00104 16.6296 7.75641 16.2043C7.51177 15.779 7.38351 15.2968 7.38453 14.8062V9.18154C7.39366 8.45605 7.68467 7.76256 8.19598 7.2478C8.7073 6.73304 9.39881 6.43739 10.1242 6.42338ZM10.619 8.37784C10.4758 8.30262 10.3158 8.2653 10.1541 8.26941C9.99242 8.27353 9.83449 8.31896 9.69533 8.40137C9.55617 8.48378 9.44041 8.60043 9.35908 8.74022C9.27775 8.88001 9.23355 9.03829 9.23068 9.2V14.8086C9.23021 14.9752 9.27366 15.139 9.35665 15.2834C9.43964 15.4278 9.55923 15.5478 9.70337 15.6313C9.84752 15.7148 10.0111 15.7588 10.1777 15.759C10.3443 15.7591 10.508 15.7153 10.6522 15.632L10.6571 15.6283L15.5679 12.8295C15.7093 12.7415 15.8253 12.6183 15.9046 12.4719C15.984 12.3255 16.0239 12.161 16.0204 11.9945C16.0169 11.828 15.9702 11.6653 15.8848 11.5224C15.7994 11.3794 15.6784 11.2611 15.5335 11.1791L15.531 11.1778L10.619 8.37784Z" fill="#737373"/>
<path fill-rule="evenodd" clip-rule="evenodd" d="M5.84615 1.84615C4.78529 1.84615 3.76787 2.26758 3.01773 3.01773C2.26758 3.76787 1.84615 4.78529 1.84615 5.84615V18.1538C1.84615 19.2147 2.26758 20.2321 3.01773 20.9823C3.76787 21.7324 4.78529 22.1538 5.84615 22.1538H18.1538C19.2147 22.1538 20.2321 21.7324 20.9823 20.9823C21.7324 20.2321 22.1538 19.2147 22.1538 18.1538V5.84615C22.1538 4.78529 21.7324 3.76787 20.9823 3.01773C20.2321 2.26758 19.2147 1.84615 18.1538 1.84615H5.84615ZM0 5.84615C0 4.29566 0.615932 2.80867 1.7123 1.7123C2.80867 0.615932 4.29566 0 5.84615 0H18.1538C19.7043 0 21.1913 0.615932 22.2877 1.7123C23.3841 2.80867 24 4.29566 24 5.84615V18.1538C24 19.7043 23.3841 21.1913 22.2877 22.2877C21.1913 23.3841 19.7043 24 18.1538 24H5.84615C4.29566 24 2.80867 23.3841 1.7123 22.2877C0.615932 21.1913 0 19.7043 0 18.1538V5.84615Z" fill="#737373"/>
</svg>
