<?xml version="1.0" standalone="no"?>
<!DOCTYPE svg PUBLIC "-//W3C//DTD SVG 20010904//EN"
 "http://www.w3.org/TR/2001/REC-SVG-20010904/DTD/svg10.dtd">
<svg version="1.0" xmlns="http://www.w3.org/2000/svg"
 width="500.000000pt" height="500.000000pt" viewBox="0 0 500.000000 500.000000"
 preserveAspectRatio="xMidYMid meet">

<g transform="translate(0.000000,500.000000) scale(0.100000,-0.100000)"
fill="#000000" stroke="none">
<path fill="#62666A" d="M590 2434 l0 -1995 458 6 c251 4 463 8 470 10 10 4 19 72 10 76 -2 1
-188 4 -415 8 -226 3 -413 8 -415 11 -2 3 0 160 3 350 8 447 8 2634 0 3076
l-6 342 175 6 c96 3 284 9 418 12 l242 7 0 37 0 37 -337 6 c-186 4 -398 7
-470 7 l-133 0 0 -1996z"/>
<path fill="#62666A" d="M3773 4383 l-203 -3 0 -39 0 -38 233 -6 c127 -4 312 -7 410 -7 l179
0 -8 -282 c-11 -357 -10 -2903 0 -3219 l8 -236 -229 -7 c-125 -3 -310 -9 -410
-12 l-183 -6 0 -39 0 -39 173 0 c94 0 304 -3 465 -7 l292 -6 0 1976 0 1977
-262 -2 c-145 -2 -354 -4 -465 -5z"/>
<path fill="#62666A" d="M3000 3265 c-514 -514 -939 -935 -945 -935 -5 0 -175 165 -377 367
l-367 367 -121 -119 c-66 -66 -120 -124 -120 -130 0 -6 221 -231 490 -500
l491 -489 1065 1065 1064 1064 -122 122 -123 123 -935 -935z"/>
<path fill="#62666A" d="M3672 1433 l3 -208 33 -3 32 -3 0 48 c0 45 12 73 32 73 4 0 26 -27
48 -60 37 -54 44 -60 76 -60 l36 0 -19 28 c-10 15 -35 53 -56 84 -44 63 -44
63 21 132 23 24 42 47 42 50 0 3 -17 6 -37 5 -34 0 -43 -6 -81 -55 -24 -30
-47 -54 -52 -54 -6 0 -10 49 -10 115 l0 115 -35 0 -35 0 2 -207z"/>
<path fill="#62666A" d="M1888 1468 c-2 -78 -2 -167 0 -195 l3 -53 35 0 34 0 0 75 c0 72 1 75
24 75 18 0 34 -16 70 -70 51 -77 59 -83 105 -78 l31 3 -50 75 c-45 68 -49 76
-33 88 9 6 20 12 24 12 13 0 39 68 39 104 0 25 -8 45 -29 68 -29 33 -29 33
-140 36 l-110 4 -3 -144z m176 72 c21 -8 26 -16 26 -43 0 -46 -15 -57 -77 -57
l-53 0 0 55 0 55 39 0 c22 0 51 -4 65 -10z"/>
<path fill="#62666A" d="M2610 1575 l0 -35 85 0 c47 0 85 -2 85 -5 0 -2 -40 -60 -90 -127 -69
-95 -90 -130 -90 -155 l0 -33 140 0 140 0 0 35 0 35 -91 0 c-79 0 -90 2 -85
16 3 9 44 69 91 134 54 75 85 128 85 144 l0 26 -135 0 -135 0 0 -35z"/>
<path fill="#62666A" d="M3410 1520 c-42 -8 -80 -27 -80 -41 0 -18 46 -32 68 -20 44 24 102
10 102 -24 0 -19 -8 -23 -66 -33 -83 -14 -114 -39 -114 -92 0 -79 75 -118 151
-79 33 16 39 17 39 4 0 -10 10 -15 30 -15 l30 0 0 115 c0 158 -9 174 -102 189
-13 2 -39 0 -58 -4z m90 -193 c0 -39 -29 -61 -76 -55 -25 3 -29 7 -29 33 0 33
30 55 78 55 24 0 27 -4 27 -33z"/>
<path fill="#62666A" d="M2260 1410 c0 -110 13 -168 40 -185 25 -15 91 -8 120 13 27 21 28 21
33 2 4 -15 14 -20 36 -20 l31 0 0 151 0 150 -32 -3 -33 -3 -3 -100 c-2 -87 -5
-102 -23 -117 -27 -23 -85 -24 -93 -2 -3 9 -6 63 -6 120 l0 104 -35 0 -35 0 0
-110z"/>
<path fill="#62666A" d="M2977 1513 c-4 -3 -7 -71 -7 -150 l0 -143 35 0 35 0 0 99 c0 96 1
100 27 121 17 13 38 20 57 18 38 -4 44 -22 45 -145 l1 -93 29 0 c37 0 41 12
41 113 -1 98 -13 157 -36 174 -27 20 -92 16 -130 -8 l-34 -21 0 21 c0 16 -6
21 -28 21 -16 0 -32 -3 -35 -7z"/>
<path fill="#62666A" d="M1570 970 c0 -27 5 -50 10 -50 6 0 10 20 10 45 0 38 3 45 20 45 17 0
20 -7 20 -45 0 -25 5 -45 10 -45 6 0 10 23 10 50 l0 50 -40 0 -40 0 0 -50z"/>
<path fill="#62666A" d="M1702 1008 c-7 -7 -12 -24 -12 -38 0 -14 5 -31 12 -38 15 -15 54 -16
63 -2 4 6 -7 10 -24 10 -21 0 -31 5 -31 15 0 10 11 15 35 15 22 0 35 5 35 13
0 19 -21 37 -45 37 -12 0 -26 -5 -33 -12z m46 -16 c2 -7 -6 -12 -17 -12 -21 0
-27 11 -14 24 9 9 26 2 31 -12z"/>
<path fill="#62666A" d="M1810 950 c0 -40 4 -70 10 -70 6 0 10 11 10 24 0 19 4 23 20 19 37
-10 67 56 38 85 -7 7 -27 12 -45 12 l-33 0 0 -70z m60 41 c13 -26 3 -51 -21
-51 -14 0 -19 7 -19 29 0 25 5 32 27 40 1 1 7 -8 13 -18z"/>
<path fill="#62666A" d="M1930 971 c0 -49 1 -51 28 -51 37 0 68 22 56 41 -5 8 -9 23 -9 34 0
16 -8 21 -37 23 l-38 3 0 -50z m53 24 c1 -5 -6 -11 -15 -13 -11 -2 -18 3 -18
13 0 17 30 18 33 0z m7 -40 c0 -8 -9 -15 -20 -15 -11 0 -20 7 -20 15 0 8 9 15
20 15 11 0 20 -7 20 -15z"/>
<path fill="#62666A" d="M2050 970 c0 -48 1 -50 28 -50 15 0 33 4 40 9 21 13 10 46 -17 49
-13 2 -26 12 -28 23 -10 36 -23 19 -23 -31z m60 -15 c0 -8 -9 -15 -20 -15 -11
0 -20 7 -20 15 0 8 9 15 20 15 11 0 20 -7 20 -15z"/>
<path fill="#62666A" d="M2157 1013 c-7 -14 -5 -93 3 -93 10 0 21 48 17 72 -4 22 -13 32 -20
21z"/>
<path fill="#62666A" d="M2222 1008 c-7 -7 -12 -24 -12 -38 0 -32 17 -50 46 -50 33 0 39 18 7
22 -42 5 -41 28 1 28 39 0 41 2 26 31 -12 21 -50 25 -68 7z m46 -16 c2 -7 -6
-12 -17 -12 -21 0 -27 11 -14 24 9 9 26 2 31 -12z"/>
<path fill="#62666A" d="M2390 970 c0 -27 5 -50 10 -50 6 0 10 20 10 45 0 38 3 45 20 45 17 0
20 -7 20 -45 0 -25 5 -45 10 -45 6 0 10 23 10 50 l0 50 -40 0 -40 0 0 -50z"/>
<path fill="#62666A" d="M2522 1008 c-7 -7 -12 -24 -12 -38 0 -31 17 -50 45 -50 28 0 45 19
45 50 0 31 -17 50 -45 50 -12 0 -26 -5 -33 -12z m56 -37 c-2 -18 -10 -27 -25
-29 -20 -3 -23 1 -23 26 0 17 6 32 13 35 23 8 38 -5 35 -32z"/>
<path fill="#62666A" d="M2692 968 c1 -36 2 -43 5 -20 4 34 17 42 27 17 8 -21 24 -19 31 5 10
31 25 13 18 -20 -3 -19 -1 -30 6 -30 7 0 11 20 11 50 0 54 -10 62 -34 28 l-16
-22 -16 22 c-24 35 -34 26 -32 -30z"/>
<path fill="#62666A" d="M2836 1011 c-4 -6 5 -9 20 -8 36 3 43 -21 7 -25 -22 -2 -28 -8 -28
-28 0 -22 5 -25 38 -27 l38 -1 -3 46 c-3 45 -5 47 -35 50 -17 2 -34 -1 -37 -7z
m54 -56 c0 -8 -9 -15 -20 -15 -20 0 -26 11 -13 23 12 13 33 7 33 -8z"/>
<path fill="#62666A" d="M2950 949 c0 -44 4 -68 10 -64 6 3 10 14 10 25 0 13 5 17 20 13 37
-10 67 56 38 85 -7 7 -27 12 -45 12 l-33 0 0 -71z m60 42 c13 -26 3 -51 -21
-51 -14 0 -19 7 -19 29 0 25 5 32 27 40 1 1 7 -8 13 -18z"/>
<path fill="#62666A" d="M3070 970 c0 -27 5 -50 10 -50 6 0 10 9 10 19 0 31 18 34 36 6 23
-35 39 -31 17 5 -13 23 -15 32 -5 42 14 14 16 28 3 28 -5 0 -13 -9 -16 -20 -3
-11 -13 -20 -21 -20 -8 0 -14 9 -14 20 0 11 -4 20 -10 20 -5 0 -10 -22 -10
-50z"/>
<path fill="#62666A" d="M3190 1015 c-3 -5 -5 -19 -4 -30 0 -11 2 -30 3 -42 2 -31 13 -29 34
7 10 17 22 30 28 30 5 0 9 -13 9 -30 0 -16 5 -30 10 -30 6 0 10 23 10 50 0 58
-15 65 -45 20 -26 -38 -33 -38 -37 3 -2 17 -5 28 -8 22z"/>
<path fill="#62666A" d="M3320 951 c0 -41 4 -71 10 -71 6 0 10 10 10 23 0 18 5 23 27 22 21 0
30 6 37 28 14 39 -2 61 -48 65 l-36 3 0 -70z m60 40 c13 -26 3 -51 -21 -51
-14 0 -19 7 -19 29 0 25 5 32 27 40 1 1 7 -8 13 -18z"/>
<path fill="#62666A" d="M3452 1008 c-16 -16 -15 -63 2 -78 39 -31 96 25 70 68 -14 21 -55 27
-72 10z m56 -42 c-2 -13 -12 -22 -25 -24 -20 -3 -23 1 -23 26 0 17 6 32 13 35
19 7 38 -14 35 -37z"/>
<path fill="#62666A" d="M3560 971 c0 -49 1 -51 28 -51 41 0 51 12 49 55 -3 38 -4 40 -40 43
l-37 3 0 -50z m53 24 c1 -5 -6 -11 -15 -13 -11 -2 -18 3 -18 13 0 17 30 18 33
0z m7 -40 c0 -8 -9 -15 -20 -15 -11 0 -20 7 -20 15 0 8 9 15 20 15 11 0 20 -7
20 -15z"/>
<path fill="#62666A" d="M3680 970 c0 -50 16 -70 22 -27 2 12 8 22 13 22 6 0 14 -10 20 -22 5
-13 16 -23 23 -23 10 0 9 7 -5 30 -13 23 -15 32 -5 42 14 14 16 28 3 28 -5 0
-13 -9 -16 -20 -3 -11 -13 -20 -21 -20 -8 0 -14 9 -14 20 0 11 -4 20 -10 20
-5 0 -10 -22 -10 -50z"/>
<path fill="#62666A" d="M3802 1008 c-15 -15 -15 -43 -2 -69 11 -20 70 -28 70 -9 0 6 -11 10
-25 10 -16 0 -25 6 -25 15 0 10 10 15 30 15 18 0 30 5 30 13 0 19 -21 37 -45
37 -12 0 -26 -5 -33 -12z m56 -16 c2 -7 -6 -12 -17 -12 -21 0 -27 11 -14 24 9
9 26 2 31 -12z"/>
</g>
</svg>
