<svg width="37" height="38" viewBox="0 0 37 38" fill="none" xmlns="http://www.w3.org/2000/svg">
<g clip-path="url(#clip0_509_1811)">
<path d="M36.9042 29.6404C36.5933 26.84 37.0331 22.5695 34.6304 16.6789C33.4331 13.744 31.8109 11.1326 29.8085 8.91718C28.732 7.72618 27.6189 7.48476 26.8781 7.10309L26.6498 5.57052C26.5107 4.63746 25.7965 3.88267 24.8727 3.69234C24.6839 3.65358 24.491 3.63911 24.2986 3.6493C23.9246 3.1633 23.3239 2.86505 22.6736 2.86505H14.3526C13.7024 2.86505 13.1016 3.1633 12.7276 3.6493C12.5352 3.63911 12.3423 3.65358 12.1535 3.69234C11.2296 3.88267 10.5155 4.63739 10.3764 5.57045L10.1481 7.10302C9.41716 7.47966 8.29607 7.72403 7.21766 8.91718C6.61283 9.5864 6.03249 10.3061 5.49274 11.0561C5.40928 11.1721 5.37532 11.3165 5.39834 11.4576C5.42135 11.5986 5.49945 11.7248 5.61547 11.8082C5.85825 11.983 6.1948 11.9258 6.3676 11.6855C6.76337 11.1354 7.1823 10.6024 7.62326 10.0878C8.43668 11.1555 8.90335 12.965 8.98009 15.3742C9.03915 17.2284 8.84437 18.8709 8.78732 19.3038C8.57119 19.6398 8.3634 20.0006 8.16552 20.3825C6.35122 19.5327 4.38524 17.9726 4.25526 15.1886C4.49288 14.7128 4.74503 14.2443 5.01134 13.7839C5.04681 13.7227 5.06987 13.655 5.07919 13.5849C5.08852 13.5147 5.08394 13.4434 5.06571 13.3751C5.04749 13.3067 5.01597 13.2426 4.97296 13.1864C4.92995 13.1302 4.87629 13.083 4.81505 13.0475C4.75381 13.0121 4.68618 12.989 4.61603 12.9797C4.54588 12.9703 4.47458 12.9749 4.40619 12.9931C4.33781 13.0114 4.27369 13.0429 4.21749 13.0859C4.16129 13.1289 4.11411 13.1826 4.07865 13.2438C-0.261851 20.74 0.457374 27.298 0.122047 29.6402C0.0868402 30.2259 0.403846 30.7447 0.89358 31.0199V32.1781C0.89358 32.7674 1.37297 33.2468 1.96229 33.2468H4.88058C5.46982 33.2468 5.94928 32.7674 5.94928 32.1781V31.0864C6.42652 30.8734 6.77808 30.438 6.8462 29.9107C7.10666 28.4024 7.15013 25.4016 8.63808 21.9145C8.54633 24.5967 8.55258 28.8598 9.31664 31.583C9.49849 32.2311 10.028 32.7232 10.6835 32.9011V33.9343C10.6835 34.6648 11.2778 35.2592 12.0083 35.2592H25.018C25.7485 35.2592 26.3429 34.6648 26.3429 33.9343V32.9011C26.9983 32.7232 27.5279 32.2311 27.7097 31.583C28.4738 28.8598 28.4801 24.5968 28.3883 21.9145C29.8784 25.4068 29.9143 28.3713 30.1801 29.9107C30.2483 30.4381 30.5998 30.8735 31.0771 31.0865V32.1782C31.0771 32.7674 31.5564 33.2468 32.1458 33.2468H35.0641C35.6533 33.2468 36.1328 32.7674 36.1328 32.1782V31.02C36.6223 30.7449 36.9394 30.2261 36.9042 29.6404ZM28.2388 19.3038C28.1818 18.8727 27.988 17.242 28.0456 15.3902C28.1208 12.9733 28.5875 11.1585 29.4027 10.0883C30.6936 11.5953 31.8354 13.328 32.7708 15.1915C32.6396 17.9739 30.6742 19.5332 28.8607 20.3826C28.6627 20.0007 28.4549 19.6398 28.2388 19.3038ZM17.8938 31.8967V9.62369H19.1322V31.8967H17.8938ZM16.8161 20.0875C14.2568 20.0349 11.8407 19.8636 9.83806 19.5911L9.84072 19.555C9.88663 19.2401 10.2587 16.5368 9.94972 13.8091C11.9458 14.0677 14.3168 14.2307 16.8161 14.2816V20.0875ZM9.77296 20.6696C11.8056 20.9419 14.2419 21.113 16.8161 21.1654V26.9713C14.2079 26.9177 11.7504 26.7412 9.72604 26.4597C9.62905 24.2074 9.70636 21.9676 9.77296 20.6696ZM20.21 14.2816C22.7092 14.2307 25.0802 14.0677 27.0763 13.809C26.7672 16.5367 27.1394 19.24 27.1853 19.555L27.1879 19.591C25.1854 19.8635 22.7692 20.0348 20.2099 20.0875V14.2816H20.21ZM28.6579 9.29397C27.9237 10.1868 27.4892 11.409 27.243 12.6998C25.2302 12.9765 22.7916 13.1504 20.2099 13.2036V9.4016L21.1865 8.85812V10.7635C21.1865 10.9064 21.2432 11.0434 21.3443 11.1445C21.4453 11.2456 21.5824 11.3023 21.7253 11.3023C21.8682 11.3023 22.0053 11.2456 22.1064 11.1445C22.2074 11.0434 22.2642 10.9064 22.2642 10.7635V8.25831C22.3563 8.20694 22.3577 8.20651 22.3698 8.19925C23.5221 7.51006 24.9428 7.42369 26.1701 7.9681C27.2556 8.48751 27.8948 8.62058 28.6579 9.29397ZM25.5837 5.72931L25.7258 6.68305C24.4107 6.36368 23.006 6.56558 21.8241 7.26986L19.5313 8.54586H19.4717C20.2596 7.38106 21.2926 6.40253 22.4983 5.67873L23.8105 4.89167C24.5245 4.4633 25.4591 4.89318 25.5837 5.72931ZM22.6735 3.94281C22.8351 3.94281 22.9892 3.97989 23.1243 4.04642L21.9439 4.75451C20.5663 5.58079 19.3947 6.70727 18.513 8.04204C17.6313 6.70727 16.4597 5.58079 15.0822 4.75451L13.9017 4.04642C14.0421 3.97785 14.1963 3.94241 14.3525 3.94281H22.6735ZM11.4423 5.72931C11.515 5.24173 11.8882 4.84741 12.3709 4.7479C13.0855 4.60039 13.4479 5.10895 14.5278 5.67873C15.7335 6.40253 16.7664 7.38106 17.5544 8.54586H17.4948L15.2019 7.26986C14.0201 6.56565 12.6153 6.36382 11.3002 6.68305L11.4423 5.72931ZM8.36814 9.29397C9.13019 8.62151 9.76506 8.49003 10.8559 7.96803C12.0833 7.42355 13.504 7.50998 14.6562 8.19918C14.6685 8.20658 14.6702 8.20715 14.7697 8.26269V10.7634C14.7697 10.9063 14.8265 11.0434 14.9276 11.1444C15.0286 11.2455 15.1657 11.3023 15.3086 11.3023C15.4515 11.3023 15.5886 11.2455 15.6897 11.1444C15.7907 11.0434 15.8475 10.9063 15.8475 10.7634V8.8625L16.8161 9.40153V13.2036C14.2343 13.1504 11.7957 12.9765 9.78302 12.6998C9.53686 11.409 9.10238 10.1869 8.36814 9.29397ZM1.9712 32.1691V31.228H4.87131V32.1691H1.9712ZM5.77713 29.7726C5.7476 30.0011 5.52105 30.1502 5.28653 30.1502C1.294 30.1432 1.72913 30.1677 1.53973 30.1294C1.34265 30.0747 1.18537 29.9097 1.19765 29.705C1.4714 25.1666 1.4413 25.6139 1.46803 25.24C2.8268 26.2606 4.47943 26.6417 6.19789 26.5816C6.11813 27.0893 6.10621 27.2459 5.77713 29.7726ZM6.39684 25.4939C4.39156 25.6188 2.77952 25.0943 1.59642 23.9323C1.89266 21.5606 2.5312 19.1709 3.4654 16.9183C3.94767 18.4826 5.12149 20.1531 7.70122 21.3563C7.15034 22.6144 6.70178 24.0334 6.39684 25.4939ZM10.3542 31.2918C10.0597 30.2423 9.88519 28.9251 9.78784 27.5553C11.8178 27.8266 14.2468 27.997 16.8161 28.0492V31.8967H11.2245C10.812 31.8967 10.4541 31.6479 10.3542 31.2918ZM25.0179 34.1815H12.0082C11.9427 34.1814 11.8799 34.1553 11.8335 34.109C11.7872 34.0627 11.7611 33.9999 11.7611 33.9344V32.9744H25.2651V33.9344C25.265 33.9999 25.2389 34.0627 25.1926 34.109C25.1462 34.1554 25.0834 34.1814 25.0179 34.1815ZM25.8016 31.8967H20.21V28.0485C20.8537 28.0357 21.4907 28.0162 22.1148 27.9884C22.2563 27.9804 22.3889 27.9168 22.4839 27.8116C22.579 27.7064 22.6287 27.5681 22.6224 27.4264C22.6161 27.2848 22.5543 27.1514 22.4503 27.055C22.3463 26.9587 22.2086 26.9072 22.0669 26.9117C21.4585 26.9387 20.8376 26.9579 20.21 26.9705V21.1654C22.7843 21.113 25.2206 20.9419 27.2532 20.6696C27.3198 21.9675 27.3973 24.2071 27.3002 26.4595C26.4596 26.5764 25.5391 26.6762 24.5552 26.7566C24.4844 26.762 24.4154 26.7813 24.3521 26.8135C24.2888 26.8456 24.2324 26.89 24.1863 26.944C24.1402 26.998 24.1053 27.0606 24.0834 27.1282C24.0616 27.1957 24.0533 27.267 24.0591 27.3377C24.0649 27.4085 24.0846 27.4775 24.1171 27.5406C24.1496 27.6037 24.1943 27.6598 24.2485 27.7056C24.3028 27.7514 24.3656 27.7861 24.4333 27.8075C24.501 27.829 24.5722 27.8369 24.643 27.8307C25.5659 27.7554 26.4352 27.663 27.2384 27.5556C27.141 28.925 26.9665 30.2421 26.6719 31.2918C26.5719 31.6479 26.2141 31.8967 25.8016 31.8967ZM29.3248 21.3563C31.9058 20.1525 33.0793 18.4808 33.5612 16.9163C33.5847 16.9729 33.6093 17.0291 33.6324 17.086C34.5299 19.2863 35.1421 21.6248 35.43 23.932C34.2469 25.0942 32.6346 25.6188 30.6292 25.4939C30.3243 24.0333 29.8757 22.6144 29.3248 21.3563ZM30.8281 26.5815C32.5462 26.6417 34.1987 26.2605 35.5572 25.2405C35.5932 25.7465 35.5401 24.9418 35.8283 29.705C35.8436 29.9602 35.5979 30.1502 35.3354 30.1502C33.5828 30.148 31.7865 30.1561 31.6655 30.145C31.4475 30.1168 31.2739 29.9664 31.2489 29.7726C30.9091 27.1636 30.9072 27.0849 30.8281 26.5815ZM32.1547 32.1691V31.228H35.0549V32.1691H32.1547Z" fill="#575757"/>
</g>
<defs>
<clipPath id="clip0_509_1811">
<rect x="0.119141" y="0.668457" width="36.7876" height="36.7876" rx="3.67876" fill="white"/>
</clipPath>
</defs>
</svg>
