<svg width="37" height="37" viewBox="0 0 37 37" fill="none" xmlns="http://www.w3.org/2000/svg">
<path d="M21.4314 7.33249C20.4425 8.0582 19.2746 8.50079 18.0531 8.61269C17.8336 7.7112 17.4281 6.86557 16.8624 6.13015C16.0089 4.97686 14.5252 4.39623 12.6888 4.51579C12.2688 4.54147 11.8726 4.7195 11.5745 5.01648C11.2764 5.31347 11.0969 5.70901 11.0696 6.12892L10.4877 13.492L5.32213 25.9311L1.61027 29.1064C0.809071 29.7976 0.297612 30.7653 0.177741 31.8166C0.0578704 32.8679 0.338384 33.9259 0.963419 34.7797L1.73167 35.8153C1.93489 36.0886 2.1935 36.316 2.49058 36.4826C2.78767 36.6492 3.11656 36.7513 3.45578 36.7822C3.74149 36.8079 4.07319 36.8251 4.44475 36.8251C7.30052 36.7949 10.0696 35.84 12.3369 34.1034L32.9263 18.8789C33.8864 18.1683 36.1912 16.2645 36.8552 13.9389V13.9352C36.9765 13.5237 36.9607 13.0839 36.81 12.6822C36.6594 12.2804 36.3821 11.9386 36.0201 11.7084C35.1367 11.1124 34.4383 10.2803 34.0048 9.30675C32.219 5.84659 29.6674 2.83936 26.5443 0.513911C26.1231 0.212148 25.6183 0.0493115 25.1002 0.0481025C24.5821 0.0468935 24.0765 0.207372 23.654 0.507167C23.3153 0.759139 23.0488 1.09567 22.8812 1.48305C22.7135 1.87043 22.6506 2.29507 22.6987 2.71442C22.8391 3.98359 22.86 6.27668 21.4314 7.33249ZM12.2921 6.22886C12.2967 6.10386 12.3474 5.98499 12.4345 5.8952C12.5216 5.8054 12.6388 5.75106 12.7636 5.74265C13.76 5.68502 15.1101 5.82604 15.8759 6.86222C16.2878 7.39948 16.6015 8.00539 16.8023 8.65193C16.4617 8.63677 16.1221 8.6032 15.7851 8.55138C15.5696 8.51494 15.3514 8.49628 15.1328 8.49559C14.3089 8.49243 13.5059 8.75472 12.8427 9.2436C12.5105 9.49479 12.2207 9.79763 11.9844 10.1406L12.2921 6.22886ZM8.16397 22.2866L11.5147 21.3295C11.6654 21.2805 11.7912 21.175 11.8658 21.0352C11.9404 20.8954 11.9579 20.7321 11.9148 20.5797C11.8717 20.4272 11.7712 20.2973 11.6344 20.2173C11.4976 20.1373 11.3352 20.1134 11.1812 20.1505L8.76545 20.839L9.39452 19.3246L12.3682 18.4767C12.5246 18.432 12.6569 18.3271 12.736 18.1849C12.815 18.0427 12.8343 17.875 12.7897 17.7185C12.7451 17.5621 12.6401 17.4298 12.4979 17.3508C12.3558 17.2717 12.188 17.2524 12.0316 17.297L9.99538 17.8776L10.6238 16.3651L13.221 15.6238C13.3775 15.5792 13.5098 15.4742 13.5888 15.332C13.6679 15.1898 13.6872 15.0221 13.6426 14.8657C13.5979 14.7092 13.493 14.5769 13.3508 14.4979C13.2086 14.4188 13.0409 14.3995 12.8844 14.4441L11.2247 14.9181L11.8556 13.4024L14.0757 12.7703C14.2322 12.7258 14.3645 12.621 14.4437 12.479C14.5229 12.3369 14.5423 12.1692 14.4979 12.0128C14.4534 11.8564 14.3486 11.724 14.2065 11.6448C14.0645 11.5657 13.8968 11.5462 13.7404 11.5906L12.4565 11.9585L12.7201 11.3233C12.8992 10.887 13.1938 10.5078 13.5724 10.2264C14.0249 9.89501 14.5718 9.7175 15.1328 9.72C15.286 9.72099 15.439 9.73431 15.5902 9.75985C16.0857 9.83764 16.5864 9.87862 17.088 9.88248L13.1358 21.2094C12.974 21.6728 12.7181 22.0978 12.3843 22.4577C12.0505 22.8176 11.6459 23.1046 11.1959 23.3007L6.98248 25.1322L8.16397 22.2866ZM19.5068 27.2781L11.6067 33.1175C9.31917 34.8949 6.45578 35.7648 3.56614 35.5602C3.39873 35.5461 3.23626 35.4964 3.0896 35.4145C2.94294 35.3325 2.81547 35.2202 2.71573 35.085L2.39446 34.6515C2.65258 34.6776 2.91185 34.6907 3.17129 34.6908C4.84512 34.6908 7.23999 34.1684 10.0886 32.0617C11.7539 30.8303 13.2544 29.3904 14.5534 27.7772C16.1775 25.7401 18.1544 24.0112 20.3897 22.6729C19.8838 24.1598 19.586 25.7096 19.505 27.2781H19.5068ZM20.7944 26.3253C21.0818 23.6962 22.02 21.1801 23.524 19.0047C25.0281 16.8292 27.0506 15.0628 29.4088 13.8653C29.4088 13.8715 29.4119 13.8782 29.4143 13.8844L31.3346 18.5318L20.7944 26.3253ZM35.3868 12.7574C35.5198 12.8486 35.6198 12.9805 35.6717 13.1332C35.7236 13.2859 35.7248 13.4513 35.6749 13.6048C35.2966 14.9267 34.0557 16.4748 32.3469 17.774L30.5467 13.4159C30.3962 13.051 30.3718 12.6463 30.4773 12.2659C30.5828 11.8855 30.8122 11.5512 31.1292 11.316L32.9576 9.96402C33.4914 11.1032 34.3327 12.0706 35.3868 12.7574ZM23.9176 2.57647C23.892 2.37221 23.9209 2.1648 24.0014 1.97535C24.082 1.78591 24.2113 1.62119 24.3762 1.49798C24.586 1.3499 24.8365 1.2704 25.0933 1.2704C25.3501 1.2704 25.6006 1.3499 25.8104 1.49798C28.4728 3.489 30.7085 5.99427 32.3849 8.8653L30.4002 10.3331C30.0448 10.5973 29.7526 10.9372 29.545 11.3284C29.3373 11.7195 29.2194 12.1519 29.1997 12.5943C25.6534 14.3307 22.8074 17.2276 21.134 20.8041C16.7606 23.302 15.161 25.1745 13.6202 26.9813C12.3801 28.5224 10.948 29.8985 9.35895 31.0764C5.41226 33.9943 2.50727 33.5289 1.54098 33.2407C1.35083 32.6811 1.33175 32.0776 1.48617 31.5071C1.64058 30.9366 1.9615 30.4251 2.40794 30.0378L6.16579 26.8238L11.6839 24.4252C12.2889 24.1611 12.8329 23.7749 13.2818 23.2909C13.7307 22.8068 14.0749 22.2354 14.2928 21.6122L18.4161 9.80338C19.771 9.6377 21.0608 9.12679 22.1616 8.31962C24.0819 6.89717 24.0862 4.11112 23.9176 2.57647Z" fill="#575757"/>
<path d="M25.5437 18.4477C25.4643 18.4615 25.3884 18.4908 25.3203 18.5339C25.2522 18.5771 25.1933 18.6333 25.1469 18.6992C25.1006 18.7651 25.0677 18.8396 25.0501 18.9183C25.0326 18.9969 25.0307 19.0783 25.0446 19.1577L25.2739 20.4692C25.2987 20.6113 25.3729 20.7402 25.4834 20.833C25.5939 20.9259 25.7335 20.9768 25.8779 20.9768C25.9134 20.9767 25.9488 20.9738 25.9839 20.9683C26.0633 20.9544 26.1391 20.925 26.2072 20.8819C26.2752 20.8387 26.334 20.7825 26.3803 20.7166C26.4266 20.6506 26.4594 20.5762 26.477 20.4976C26.4945 20.4189 26.4963 20.3376 26.4824 20.2583L26.2531 18.9468C26.2243 18.787 26.1337 18.6449 26.0009 18.5515C25.8681 18.4581 25.7038 18.4208 25.5437 18.4477ZM27.938 16.6776C27.7778 16.7056 27.6353 16.796 27.5418 16.9291C27.4483 17.0621 27.4115 17.2268 27.4395 17.387L27.6682 18.6985C27.6929 18.8406 27.7669 18.9695 27.8772 19.0625C27.9876 19.1555 28.1272 19.2066 28.2715 19.2067C28.3071 19.2067 28.3425 19.2036 28.3776 19.1975C28.5371 19.1695 28.6791 19.0795 28.7725 18.9472C28.8659 18.8148 28.9031 18.6509 28.876 18.4912L28.6473 17.1791C28.6343 17.0993 28.6055 17.0229 28.5627 16.9544C28.5198 16.8858 28.4637 16.8265 28.3977 16.7798C28.3317 16.7331 28.257 16.7 28.1781 16.6825C28.0992 16.6649 28.0175 16.6633 27.938 16.6776Z" fill="#575757"/>
</svg>
