<svg width="39" height="30" viewBox="0 0 39 30" fill="none" xmlns="http://www.w3.org/2000/svg">
<path d="M38.573 15.8988L36.6766 6.60697C36.3055 4.89728 35.3619 3.36549 34.0019 2.2649C32.642 1.16432 30.9471 0.560883 29.1976 0.554382L10.5654 0.554382C8.81606 0.560763 7.12129 1.16409 5.76142 2.26458C4.40156 3.36506 3.45808 4.89676 3.08705 6.60633L0.624438 18.1287C0.623486 18.144 0.623486 18.1593 0.624438 18.1746C0.343829 19.5376 0.375415 20.9464 0.716828 22.2955C1.05824 23.6445 1.70062 24.8988 2.59581 25.9642C3.49099 27.0296 4.61576 27.8786 5.88577 28.4474C7.15578 29.0162 8.53808 29.2902 9.92904 29.2487H35.1851C35.6746 29.2487 36.1586 29.1463 36.6061 28.948C37.0536 28.7497 37.4546 28.46 37.7834 28.0974C38.1121 27.7348 38.3614 27.3074 38.5151 26.8427C38.6687 26.378 38.7234 25.8863 38.6756 25.3992C38.5917 24.6762 38.2883 23.9963 37.8061 23.4511C37.324 22.9059 36.6863 22.5216 35.979 22.3499C36.9886 21.6444 37.7713 20.6604 38.2318 19.518C38.6922 18.3756 38.8105 17.1239 38.5723 15.9154C38.5717 15.9097 38.5736 15.9046 38.573 15.8988ZM4.33429 6.87223C4.64346 5.4478 5.42959 4.17157 6.56266 3.25463C7.69572 2.3377 9.10783 1.835 10.5654 1.82968H29.1976C30.6544 1.83478 32.0659 2.33677 33.1987 3.25271C34.3316 4.16864 35.118 5.44369 35.4281 6.86713L36.5548 12.3835C35.3909 11.3367 33.8811 10.7573 32.3157 10.7568H9.67908C8.42575 10.7529 7.18493 11.0061 6.03332 11.5007C4.88172 11.9953 3.84381 12.7209 2.98375 13.6326C2.93911 13.6792 2.90213 13.7302 2.85622 13.7774L4.33429 6.87223ZM32.3157 22.2345H9.67908C9.36718 22.2341 9.05882 22.1684 8.77384 22.0416C8.48885 21.9149 8.23356 21.7299 8.02437 21.4985C7.81518 21.2672 7.65673 20.9946 7.55921 20.6983C7.46169 20.4021 7.42727 20.0887 7.45815 19.7783C7.53516 19.2139 7.817 18.6974 8.25003 18.3273C8.68307 17.9572 9.23707 17.7592 9.80661 17.771H32.3157C32.4848 17.771 32.647 17.7038 32.7666 17.5842C32.8862 17.4646 32.9534 17.3024 32.9534 17.1333C32.9534 16.9642 32.8862 16.802 32.7666 16.6824C32.647 16.5628 32.4848 16.4957 32.3157 16.4957H9.80661C8.92094 16.4863 8.06275 16.803 7.39555 17.3856C6.72834 17.9681 6.29874 18.7757 6.18858 19.6546C6.14054 20.142 6.19503 20.6341 6.34854 21.0993C6.50204 21.5644 6.75117 21.9922 7.07992 22.3553C7.40866 22.7184 7.80973 23.0087 8.25737 23.2075C8.705 23.4064 9.18928 23.5093 9.67908 23.5098H35.0621C35.6316 23.4981 36.1855 23.6967 36.6179 24.0675C37.0503 24.4384 37.3309 24.9556 37.4061 25.5203C37.438 25.8312 37.4037 26.1454 37.3056 26.4421C37.2075 26.7388 37.0476 27.0114 36.8367 27.242C36.6273 27.472 36.3723 27.6558 36.0879 27.7817C35.8036 27.9076 35.4961 27.9729 35.1851 27.9734H9.92904C5.61151 28.0448 1.99794 24.7143 1.71865 20.4051C1.66529 19.3262 1.83159 18.2476 2.20744 17.2349C2.5833 16.2221 3.1609 15.2962 3.90522 14.5133C4.64954 13.7304 5.54509 13.1068 6.53758 12.6803C7.53007 12.2538 8.59883 12.0333 9.67908 12.0321H32.3157C33.6686 12.0321 34.9661 12.5696 35.9228 13.5262C36.8795 14.4829 37.4169 15.7804 37.4169 17.1333C37.4169 18.4862 36.8795 19.7838 35.9228 20.7404C34.9661 21.6971 33.6686 22.2345 32.3157 22.2345Z" fill="#575757"/>
<path d="M6.07267 7.8935C6.23807 7.92865 6.41065 7.89667 6.55247 7.8046C6.69429 7.71252 6.79373 7.56789 6.82893 7.4025C7.01451 6.54852 7.48602 5.78346 8.16549 5.23386C8.84495 4.68427 9.69165 4.38305 10.5656 4.38004H15.7369C15.906 4.38004 16.0682 4.31286 16.1878 4.19327C16.3074 4.07369 16.3746 3.9115 16.3746 3.74239C16.3746 3.57327 16.3074 3.41108 16.1878 3.2915C16.0682 3.17192 15.906 3.10474 15.7369 3.10474H10.5656C9.39975 3.10893 8.27028 3.51089 7.36392 4.24414C6.45757 4.97738 5.8286 5.99801 5.58104 7.13724C5.56365 7.21918 5.56256 7.30374 5.57786 7.3861C5.59315 7.46846 5.62452 7.547 5.67018 7.61723C5.71583 7.68746 5.77488 7.748 5.84394 7.79541C5.913 7.84281 5.99073 7.87614 6.07267 7.8935Z" fill="#575757"/>
<path d="M18.2873 4.38004C18.6395 4.38004 18.925 4.09455 18.925 3.74239C18.925 3.39022 18.6395 3.10474 18.2873 3.10474C17.9351 3.10474 17.6497 3.39022 17.6497 3.74239C17.6497 4.09455 17.9351 4.38004 18.2873 4.38004Z" fill="#575757"/>
</svg>
