<svg width="37" height="37" viewBox="0 0 37 37" fill="none" xmlns="http://www.w3.org/2000/svg">
<g clip-path="url(#clip0_509_1835)">
<path d="M27.5484 16.6862L27.5477 16.6856C26.2228 15.5104 24.531 14.8316 22.7613 14.7651V11.6857C22.7607 11.5042 22.7195 11.3251 22.6408 11.1616C22.5622 10.998 22.448 10.8541 22.3066 10.7403L25.4719 5.85256L26.3179 4.72149C26.3945 4.6163 26.4351 4.48928 26.4338 4.35921C26.4344 4.34829 26.4401 4.3391 26.4401 4.3281L26.4381 4.31862C26.4373 4.30324 26.4311 4.28902 26.429 4.27371C26.4213 4.18839 26.3953 4.10573 26.3528 4.03132C26.3104 3.95691 26.2524 3.89248 26.1829 3.84239L22.5829 0.217164C22.526 0.159828 22.4582 0.114329 22.3836 0.0832897C22.309 0.0522509 22.229 0.0362861 22.1482 0.036316H14.7907C14.7099 0.0362861 14.6299 0.0522509 14.5553 0.0832897C14.4807 0.114329 14.4129 0.159828 14.356 0.217164L10.7559 3.84246C10.6864 3.89256 10.6285 3.95699 10.586 4.0314C10.5436 4.10581 10.5176 4.18847 10.5098 4.27378C10.5078 4.28909 10.5016 4.30331 10.5007 4.31876L10.4988 4.32825C10.4988 4.33931 10.5045 4.34851 10.505 4.35936C10.5038 4.48943 10.5444 4.61645 10.6209 4.72163L11.4433 5.81886L14.6321 10.7406C14.4908 10.8543 14.3766 10.9982 14.2979 11.1618C14.2193 11.3253 14.1782 11.5043 14.1775 11.6858V14.7651C12.983 14.8101 11.8156 15.1345 10.7691 15.7123C9.72267 16.2901 8.82624 17.1052 8.15181 18.0921C7.47738 19.0791 7.04375 20.2105 6.88572 21.3953C6.72769 22.5802 6.84966 23.7857 7.24185 24.9149L10.3643 33.9361C10.9632 35.6642 12.5911 36.8232 14.42 36.8239H22.5188C24.3478 36.8232 25.9756 35.6642 26.5745 33.9361L29.697 24.9149C30.716 21.9901 29.8672 18.7395 27.5484 16.6862ZM24.4663 5.1518L21.0273 10.4595H19.4213L21.9298 4.94135H24.6235L24.4663 5.1518ZM21.5351 11.6857V14.7513H15.4039V11.6857H21.5351ZM21.8931 1.26259L24.3312 3.71507H21.9141L20.6878 1.26259H21.8931ZM17.6222 1.26259H19.3167L20.5429 3.71507H16.3959L17.6222 1.26259ZM20.5828 4.94135L18.4695 9.59052L16.3561 4.94135H20.5828ZM15.0458 1.26259H16.2511L15.0248 3.71507H12.6074L15.0458 1.26259ZM12.4489 5.11796L12.3168 4.94135H15.0091L17.5175 10.4595H15.9114L12.4489 5.11796ZM25.4159 33.5349C24.988 34.7692 23.8252 35.5971 22.5188 35.5977H14.42C13.1136 35.5971 11.9509 34.7692 11.5229 33.535L10.5705 30.7832C11.8013 30.0303 13.1972 29.5891 14.6371 29.4978C16.077 29.4066 17.5174 29.668 18.8335 30.2595C20.896 31.1532 23.1228 31.6052 25.3706 31.5866C25.6227 31.5866 25.8614 31.5788 26.0962 31.5694L25.4159 33.5349ZM28.5384 24.5138L26.5297 30.317C24.0704 30.5127 21.6004 30.1085 19.3317 29.1392C17.8763 28.4823 16.2854 28.1818 14.6908 28.2624C13.0961 28.343 11.5436 28.8024 10.1619 29.6027L8.40051 24.5137C7.54477 22.0569 8.25803 19.3267 10.206 17.6023C11.383 16.5552 12.9037 15.977 14.4791 15.9776H22.4599C23.4853 15.9777 24.4958 16.223 25.4072 16.6929C26.3186 17.1628 27.1044 17.8438 27.6992 18.6791C28.294 19.5143 28.6805 20.4797 28.8265 21.4946C28.9724 22.5096 28.8737 23.5447 28.5384 24.5138Z" fill="#575757"/>
<path d="M27.0685 20.6562C26.9646 20.6276 26.855 20.6269 26.7507 20.6542C26.6464 20.6814 26.5512 20.7357 26.4746 20.8115C26.398 20.8873 26.3427 20.982 26.3144 21.086C26.286 21.1899 26.2856 21.2996 26.3131 21.4038C26.5115 22.1651 26.4794 22.9683 26.221 23.7114L24.6597 28.2221C24.5489 28.5421 24.7185 28.8912 25.0384 29.002C25.3584 29.1128 25.7075 28.9432 25.8183 28.6232L27.3795 24.1125C27.7179 23.1403 27.7596 22.0895 27.4993 21.0936C27.4723 20.9893 27.4182 20.8939 27.3426 20.8171C27.2669 20.7403 27.1724 20.6848 27.0685 20.6562ZM25.705 19.5604C25.8074 19.5264 25.899 19.4662 25.9706 19.3856C26.0422 19.305 26.0913 19.2069 26.113 19.1013C26.1347 18.9956 26.1281 18.8862 26.0939 18.7839C26.0598 18.6816 25.9993 18.5901 25.9185 18.5187C24.9657 17.6714 23.7349 17.2035 22.4598 17.2038C22.1212 17.2038 21.8467 17.4783 21.8467 17.8169C21.8467 18.1555 22.1212 18.43 22.4598 18.43C23.4345 18.4297 24.3754 18.7874 25.1036 19.4353C25.184 19.5072 25.2819 19.5566 25.3875 19.5786C25.4931 19.6005 25.6026 19.5943 25.705 19.5604Z" fill="#575757"/>
</g>
<defs>
<clipPath id="clip0_509_1835">
<rect x="0.196777" y="0.0362549" width="36.7876" height="36.7876" rx="3.67876" fill="white"/>
</clipPath>
</defs>
</svg>
