<svg width="25" height="25" viewBox="0 0 25 25" fill="none" xmlns="http://www.w3.org/2000/svg">
<g clip-path="url(#clip0_532_2674)">
<path fill-rule="evenodd" clip-rule="evenodd" d="M24.96 12.5076C24.96 15.6902 23.6957 18.7424 21.4452 20.9929C19.1948 23.2433 16.1426 24.5076 12.96 24.5076C9.77736 24.5076 6.72512 23.2433 4.47468 20.9929C2.22424 18.7424 0.959961 15.6902 0.959961 12.5076C0.959961 9.32497 2.22424 6.27272 4.47468 4.02229C6.72512 1.77185 9.77736 0.507568 12.96 0.507568C16.1426 0.507568 19.1948 1.77185 21.4452 4.02229C23.6957 6.27272 24.96 9.32497 24.96 12.5076ZM18.21 13.2576C18.4089 13.2576 18.5996 13.1786 18.7403 13.0379C18.8809 12.8972 18.96 12.7065 18.96 12.5076C18.96 12.3087 18.8809 12.1179 18.7403 11.9772C18.5996 11.8366 18.4089 11.7576 18.21 11.7576H9.52046L12.741 8.53857C12.8818 8.39774 12.9609 8.20673 12.9609 8.00757C12.9609 7.8084 12.8818 7.6174 12.741 7.47657C12.6001 7.33574 12.4091 7.25662 12.21 7.25662C12.0108 7.25662 11.8198 7.33574 11.679 7.47657L7.17896 11.9766C7.10912 12.0462 7.0537 12.129 7.01589 12.2201C6.97808 12.3112 6.95862 12.4089 6.95862 12.5076C6.95862 12.6062 6.97808 12.7039 7.01589 12.795C7.0537 12.8861 7.10912 12.9689 7.17896 13.0386L11.679 17.5386C11.8198 17.6794 12.0108 17.7585 12.21 17.7585C12.4091 17.7585 12.6001 17.6794 12.741 17.5386C12.8818 17.3977 12.9609 17.2067 12.9609 17.0076C12.9609 16.8084 12.8818 16.6174 12.741 16.4766L9.52046 13.2576H18.21Z" fill="#7D7D7D"/>
</g>
<defs>
<clipPath id="clip0_532_2674">
<rect width="24" height="24" fill="white" transform="translate(0.959961 0.507568)"/>
</clipPath>
</defs>
</svg>
