<svg width="25" height="25" viewBox="0 0 25 25" fill="none" xmlns="http://www.w3.org/2000/svg">
<g clip-path="url(#clip0_532_2675)">
<path fill-rule="evenodd" clip-rule="evenodd" d="M24.96 12.5076C24.96 15.6902 23.6957 18.7424 21.4452 20.9929C19.1948 23.2433 16.1426 24.5076 12.96 24.5076C9.77736 24.5076 6.72512 23.2433 4.47468 20.9929C2.22424 18.7424 0.959961 15.6902 0.959961 12.5076C0.959961 9.32497 2.22424 6.27272 4.47468 4.02229C6.72512 1.77185 9.77736 0.507568 12.96 0.507568C16.1426 0.507568 19.1948 1.77185 21.4452 4.02229C23.6957 6.27272 24.96 9.32497 24.96 12.5076ZM7.70996 13.2576C7.51105 13.2576 7.32028 13.1786 7.17963 13.0379C7.03898 12.8972 6.95996 12.7065 6.95996 12.5076C6.95996 12.3087 7.03898 12.1179 7.17963 11.9772C7.32028 11.8366 7.51105 11.7576 7.70996 11.7576H16.3995L13.179 8.53857C13.0381 8.39774 12.959 8.20673 12.959 8.00757C12.959 7.8084 13.0381 7.6174 13.179 7.47657C13.3198 7.33574 13.5108 7.25662 13.71 7.25662C13.9091 7.25662 14.1001 7.33574 14.241 7.47657L18.741 11.9766C18.8108 12.0462 18.8662 12.129 18.904 12.2201C18.9418 12.3112 18.9613 12.4089 18.9613 12.5076C18.9613 12.6062 18.9418 12.7039 18.904 12.795C18.8662 12.8861 18.8108 12.9689 18.741 13.0386L14.241 17.5386C14.1001 17.6794 13.9091 17.7585 13.71 17.7585C13.5108 17.7585 13.3198 17.6794 13.179 17.5386C13.0381 17.3977 12.959 17.2067 12.959 17.0076C12.959 16.8084 13.0381 16.6174 13.179 16.4766L16.3995 13.2576H7.70996Z" fill="#087990"/>
</g>
<defs>
<clipPath id="clip0_532_2675">
<rect width="24" height="24" fill="white" transform="translate(0.959961 0.507568)"/>
</clipPath>
</defs>
</svg>
