<svg width="25" height="24" viewBox="0 0 25 24" fill="none" xmlns="http://www.w3.org/2000/svg">
<g clip-path="url(#clip0_532_2566)">
<path fill-rule="evenodd" clip-rule="evenodd" d="M24.04 12C24.04 17.799 18.667 22.5 12.04 22.5C10.8515 22.5016 9.66792 22.3473 8.51954 22.041C7.64354 22.485 5.63204 23.337 2.24804 23.892C1.94804 23.94 1.72004 23.628 1.83854 23.349C2.36954 22.095 2.84954 20.424 2.99354 18.9C1.15604 17.055 0.0400391 14.64 0.0400391 12C0.0400391 6.201 5.41304 1.5 12.04 1.5C18.667 1.5 24.04 6.201 24.04 12ZM10.831 10.149C10.9615 10.335 11.0755 10.539 11.1715 10.7505C11.8135 12.1725 11.761 14.316 9.75854 16.3095C9.63631 16.4286 9.47318 16.4965 9.30252 16.4993C9.13186 16.5021 8.96659 16.4396 8.84054 16.3245C8.77908 16.2688 8.72967 16.2012 8.69534 16.1257C8.66102 16.0502 8.64252 15.9685 8.64097 15.8856C8.63943 15.8027 8.65487 15.7203 8.68636 15.6436C8.71784 15.5669 8.7647 15.4974 8.82404 15.4395C9.45254 14.8155 9.83204 14.193 10.0375 13.6095C9.63404 13.857 9.15554 13.9995 8.64254 13.9995C7.20254 13.9995 6.04004 12.8805 6.04004 11.5005C6.04004 10.1205 7.20404 9 8.64104 9C9.04754 9 9.43304 9.09 9.77504 9.249L9.78704 9.255C10.0405 9.36 10.2775 9.528 10.4905 9.741C10.618 9.8655 10.732 10.002 10.831 10.149ZM16.54 13.6095C16.1365 13.857 15.658 13.9995 15.145 13.9995C13.708 13.9995 12.5425 12.8805 12.5425 11.5005C12.5425 10.1205 13.708 9 15.1435 9C15.55 9 15.9355 9.09 16.2775 9.249L16.2895 9.255C16.5445 9.36 16.78 9.528 16.993 9.741C17.1205 9.8655 17.2345 10.002 17.3335 10.149C17.464 10.335 17.5795 10.539 17.6755 10.7505C18.3175 12.1725 18.2635 14.316 16.2625 16.3095C16.1402 16.4291 15.9768 16.4972 15.8058 16.5C15.6348 16.5028 15.4692 16.44 15.343 16.3245C15.2816 16.2688 15.2322 16.2012 15.1978 16.1257C15.1635 16.0502 15.145 15.9685 15.1435 15.8856C15.1419 15.8027 15.1574 15.7203 15.1889 15.6436C15.2203 15.5669 15.2672 15.4974 15.3265 15.4395C15.9565 14.8155 16.3345 14.193 16.5415 13.6095H16.54Z" fill="#087990"/>
</g>
<defs>
<clipPath id="clip0_532_2566">
<rect width="24" height="24" fill="white" transform="translate(0.0400391)"/>
</clipPath>
</defs>
</svg>
