<svg width="25" height="24" viewBox="0 0 25 24" fill="none" xmlns="http://www.w3.org/2000/svg">
<circle cx="12.04" cy="12" r="12" fill="#087990"/>
<path d="M6.40549 19.6945V15.1182H7.16368C7.42186 14.9327 7.65822 14.6709 7.87277 14.3327C8.08731 13.9909 8.27095 13.52 8.42368 12.92C8.5764 12.3164 8.68549 11.5273 8.75095 10.5527L9.06731 5.82909H16.4582V15.1182H17.68V19.6836H15.4109V17H8.67458V19.6945H6.40549ZM9.89095 15.1182H14.1891V7.77636H11.1946L11.02 10.5527C10.9728 11.2909 10.8946 11.9455 10.7855 12.5164C10.68 13.0873 10.5509 13.5873 10.3982 14.0164C10.2491 14.4418 10.08 14.8091 9.89095 15.1182Z" fill="white"/>
</svg>
