<svg width="24" height="24" viewBox="0 0 24 24" fill="none"
     xmlns="http://www.w3.org/2000/svg">
  <g clip-path="url(#clip0_doc_only)">
    <!-- Круг статуса -->
    <path fill-rule="evenodd" clip-rule="evenodd"
          d="M24 12C24 15.1826 22.7357 18.2348 20.4853 20.4853
             C18.2348 22.7357 15.1826 24 12 24
             C8.8174 24 5.76516 22.7357 3.51472 20.4853
             C1.26428 18.2348 0 15.1826 0 12
             C0 8.8174 1.26428 5.76516 3.51472 3.51472
             C5.76516 1.26428 8.8174 0 12 0
             C15.1826 0 18.2348 1.26428 20.4853 3.51472
             C22.7357 5.76516 24 8.8174 24 12Z"
          fill="#FFD666"/>

    <!-- Увеличенный документ -->
    <rect x="7" y="5.5" width="10" height="13" rx="1.8"
          stroke="#8A6D00" stroke-width="1.5" fill="none"/>

    <!-- Строки -->
    <path d="M9.5 10H14.5"
          stroke="#8A6D00" stroke-width="1.5"
          stroke-linecap="round" opacity="0.6"/>
    <path d="M9.5 13H14.5"
          stroke="#8A6D00" stroke-width="1.5"
          stroke-linecap="round" opacity="0.6"/>
  </g>

  <defs>
    <clipPath id="clip0_doc_only">
      <rect width="24" height="24" fill="white"/>
    </clipPath>
  </defs>
</svg>
