<svg width="25" height="25" viewBox="0 0 25 25" fill="none" xmlns="http://www.w3.org/2000/svg">
<g clip-path="url(#clip0_532_2671)">
<path fill-rule="evenodd" clip-rule="evenodd" d="M0.790039 15.3574C0.988951 15.3574 1.17972 15.4364 1.32037 15.5771C1.46102 15.7177 1.54004 15.9085 1.54004 16.1074V19.8574C1.54004 20.2552 1.69807 20.6368 1.97938 20.9181C2.26068 21.1994 2.64221 21.3574 3.04004 21.3574H21.04C21.4379 21.3574 21.8194 21.1994 22.1007 20.9181C22.382 20.6368 22.54 20.2552 22.54 19.8574V16.1074C22.54 15.9085 22.6191 15.7177 22.7597 15.5771C22.9004 15.4364 23.0911 15.3574 23.29 15.3574C23.489 15.3574 23.6797 15.4364 23.8204 15.5771C23.961 15.7177 24.04 15.9085 24.04 16.1074V19.8574C24.04 20.6531 23.724 21.4161 23.1614 21.9787C22.5987 22.5414 21.8357 22.8574 21.04 22.8574H3.04004C2.24439 22.8574 1.48133 22.5414 0.918719 21.9787C0.35611 21.4161 0.0400391 20.6531 0.0400391 19.8574V16.1074C0.0400391 15.9085 0.119057 15.7177 0.259709 15.5771C0.400361 15.4364 0.591127 15.3574 0.790039 15.3574Z" fill="#087990"/>
<path fill-rule="evenodd" clip-rule="evenodd" d="M11.51 18.2886C11.5797 18.3584 11.6624 18.4138 11.7535 18.4516C11.8447 18.4894 11.9423 18.5089 12.041 18.5089C12.1396 18.5089 12.2373 18.4894 12.3284 18.4516C12.4196 18.4138 12.5023 18.3584 12.572 18.2886L17.072 13.7886C17.2128 13.6477 17.2919 13.4567 17.2919 13.2576C17.2919 13.0584 17.2128 12.8674 17.072 12.7266C16.9312 12.5857 16.7401 12.5066 16.541 12.5066C16.3418 12.5066 16.1508 12.5857 16.01 12.7266L12.791 15.9471V2.75757C12.791 2.55866 12.712 2.36789 12.5713 2.22724C12.4307 2.08659 12.2399 2.00757 12.041 2.00757C11.8421 2.00757 11.6513 2.08659 11.5107 2.22724C11.37 2.36789 11.291 2.55866 11.291 2.75757V15.9471L8.07199 12.7266C7.93116 12.5857 7.74015 12.5066 7.54099 12.5066C7.34182 12.5066 7.15082 12.5857 7.00999 12.7266C6.86916 12.8674 6.79004 13.0584 6.79004 13.2576C6.79004 13.4567 6.86916 13.6477 7.00999 13.7886L11.51 18.2886Z" fill="#087990"/>
</g>
<defs>
<clipPath id="clip0_532_2671">
<rect width="24" height="24" fill="white" transform="translate(0.0400391 0.507568)"/>
</clipPath>
</defs>
</svg>
