<svg width="25" height="25" viewBox="0 0 25 25" fill="none" xmlns="http://www.w3.org/2000/svg">
<g clip-path="url(#clip0_532_2672)">
<path fill-rule="evenodd" clip-rule="evenodd" d="M0.0400391 6.50757C0.0400391 5.71192 0.35611 4.94886 0.918719 4.38625C1.48133 3.82364 2.24439 3.50757 3.04004 3.50757H21.04C21.8357 3.50757 22.5987 3.82364 23.1614 4.38625C23.724 4.94886 24.04 5.71192 24.04 6.50757V18.5076C24.04 19.3032 23.724 20.0663 23.1614 20.6289C22.5987 21.1915 21.8357 21.5076 21.04 21.5076H3.04004C2.24439 21.5076 1.48133 21.1915 0.918719 20.6289C0.35611 20.0663 0.0400391 19.3032 0.0400391 18.5076V6.50757ZM3.04004 5.00757C2.64221 5.00757 2.26068 5.1656 1.97938 5.44691C1.69807 5.72821 1.54004 6.10974 1.54004 6.50757V6.83307L12.04 13.1331L22.54 6.83307V6.50757C22.54 6.10974 22.382 5.72821 22.1007 5.44691C21.8194 5.1656 21.4379 5.00757 21.04 5.00757H3.04004ZM22.54 8.58207L15.403 12.8646L22.54 17.1786V8.58357V8.58207ZM22.489 18.8991L13.9465 13.7376L12.04 14.8821L10.132 13.7376L1.59104 18.8976C1.67684 19.2162 1.86531 19.4977 2.12727 19.6983C2.38923 19.899 2.71005 20.0077 3.04004 20.0076H21.04C21.3698 20.0078 21.6905 19.8993 21.9524 19.6989C22.2144 19.4985 22.403 19.2174 22.489 18.8991ZM1.54004 17.1786L8.67704 12.8646L1.54004 8.58207V17.1771V17.1786Z" fill="#087990"/>
</g>
<defs>
<clipPath id="clip0_532_2672">
<rect width="24" height="24" fill="white" transform="translate(0.0400391 0.507568)"/>
</clipPath>
</defs>
</svg>
