<svg xmlns="http://www.w3.org/2000/svg" width="66" height="66" viewBox="0 0 66 66" fill="none">
  <path fill-rule="evenodd" clip-rule="evenodd" d="M35.569 8.05446C41.3576 8.41751 46.7845 11.322 50.7642 15.3156C55.4675 20.3984 58 26.5703 58 33.8314C58 39.6403 55.8293 45.0862 52.2113 49.8059C48.5934 54.1626 43.5284 57.4301 37.7397 58.5193C31.9511 59.6084 26.1624 58.8823 21.0973 55.9779C16.0323 53.0734 12.0526 48.7167 9.88182 43.2709C7.71107 37.8251 7.34928 31.6531 9.15823 26.2073C10.9672 20.3984 14.2233 15.6786 19.2884 12.4111C23.9917 9.14363 29.7803 7.6914 35.569 8.05446ZM37.3779 54.8887C42.0812 53.7995 46.4227 51.2581 49.6788 47.2645C52.5731 43.2709 54.3821 38.5512 54.0203 33.4684C54.0203 27.6595 51.8496 21.8506 47.8699 17.857C44.2519 14.2264 39.9105 12.0481 34.8454 11.685C30.1421 11.322 25.077 12.4111 21.0973 15.3156C17.1176 18.22 14.2233 22.2136 12.7761 27.2964C11.329 32.0162 11.329 37.099 13.4997 41.8187C15.6705 46.5384 18.9266 50.169 23.2681 52.7104C27.6096 55.2518 32.6746 55.9779 37.3779 54.8887ZM33.0364 31.6531L41.7194 22.5767L44.2519 25.1181L35.569 34.1945L44.2519 43.2709L41.7194 45.8123L33.0364 36.7359L24.3535 45.8123L21.8209 43.2709L30.5039 34.1945L21.8209 25.1181L24.3535 22.5767L33.0364 31.6531Z" fill="#9C9C9C"/>
</svg>