<svg width="25" height="25" viewBox="0 0 25 25" fill="none" xmlns="http://www.w3.org/2000/svg">
<g clip-path="url(#clip0_532_2659)">
<path fill-rule="evenodd" clip-rule="evenodd" d="M18.04 2.00757H6.04004C5.64221 2.00757 5.26068 2.1656 4.97938 2.44691C4.69807 2.72821 4.54004 3.10974 4.54004 3.50757V19.6401C4.54004 19.6401 6.04004 17.0076 12.04 17.0076C18.04 17.0076 19.54 19.6401 19.54 19.6401V3.50757C19.54 3.10974 19.382 2.72821 19.1007 2.44691C18.8194 2.1656 18.4379 2.00757 18.04 2.00757ZM6.04004 0.507568C5.24439 0.507568 4.48133 0.823639 3.91872 1.38625C3.35611 1.94886 3.04004 2.71192 3.04004 3.50757V21.5076C3.04004 22.3032 3.35611 23.0663 3.91872 23.6289C4.48133 24.1915 5.24439 24.5076 6.04004 24.5076H18.04C18.8357 24.5076 19.5987 24.1915 20.1614 23.6289C20.724 23.0663 21.04 22.3032 21.04 21.5076V3.50757C21.04 2.71192 20.724 1.94886 20.1614 1.38625C19.5987 0.823639 18.8357 0.507568 18.04 0.507568L6.04004 0.507568Z" fill="#17A2B8"/>
<path fill-rule="evenodd" clip-rule="evenodd" d="M12.04 15.5076C12.631 15.5076 13.2161 15.3912 13.7621 15.165C14.3081 14.9389 14.8042 14.6074 15.222 14.1895C15.6399 13.7717 15.9714 13.2756 16.1975 12.7296C16.4236 12.1837 16.54 11.5985 16.54 11.0076C16.54 10.4166 16.4236 9.83146 16.1975 9.28549C15.9714 8.73953 15.6399 8.24345 15.222 7.82559C14.8042 7.40772 14.3081 7.07626 13.7621 6.85011C13.2161 6.62396 12.631 6.50757 12.04 6.50757C10.8466 6.50757 9.70197 6.98167 8.85806 7.82559C8.01414 8.6695 7.54004 9.81409 7.54004 11.0076C7.54004 12.201 8.01414 13.3456 8.85806 14.1895C9.70197 15.0335 10.8466 15.5076 12.04 15.5076Z" fill="#17A2B8"/>
</g>
<defs>
<clipPath id="clip0_532_2659">
<rect width="24" height="24" fill="white" transform="translate(0.0400391 0.507568)"/>
</clipPath>
</defs>
</svg>
