<svg xmlns="http://www.w3.org/2000/svg" xmlns:xlink="http://www.w3.org/1999/xlink" fill="#6e6868" width="800px"
     height="800px" viewBox="0 0 1000 1000" version="1.1" enable-background="new 0 0 1000 1000" xml:space="preserve">
<g>
<g transform="translate(0.000000,511.000000) scale(0.100000,-0.100000)">
<path d="M7137,4992.7c-160-45.7-363.6-290.8-398.9-479.9c-16.6-89.3-31.2-95.6-83.1-37.4c-20.8,22.9-89.3,60.2-153.7,85.2c-216,81-536,18.7-683.5-132.9c-162.1-168.3-214-479.9-130.9-804c22.9-95.6,43.6-193.2,43.6-216c0-24.9,22.8-114.3,49.8-199.4c27-85.2,56.1-199.4,64.4-253.5l14.6-99.7l-66.5,22.9c-114.3,41.6-351.1,12.5-475.8-54c-130.9-72.7-197.3-147.5-270.1-301.2c-72.7-160-85.2-484-24.9-695.9C5232,1085,5545.7,104.5,5626.7-61.7c68.6-137.1,193.2-286.7,288.8-346.9l49.9-31.2l16.6-664.8c8.3-363.6,16.6-720.9,16.6-793.6c2.1-110.1,10.4-139.2,54-180.7l49.9-51.9h1258.9h1258.9l49.9,51.9l51.9,49.8v795.7l2.1,795.7l83.1,58.2C8986-257,9069.1-45.1,9148,476.3c114.3,764.5,459.1,2698.6,492.4,2760.9c37.4,66.5,27,303.3-14.6,386.4c-49.9,99.7-149.6,203.6-249.3,255.5c-64.4,35.3-120.5,45.7-251.4,45.7h-170.4l-8.3,189c-16.6,315.8-155.8,552.6-386.4,666.9c-234.8,114.3-448.7,68.5-579.6-126.7l-54-83.1l-49.9,103.9c-64.4,126.7-157.9,228.5-265.9,284.6C7513,5009.3,7261.7,5025.9,7137,4992.7z M7508.9,4610.5c95.6-62.3,133-180.7,178.7-558.8c22.9-195.3,54-376,70.6-401c37.4-60.2,135-78.9,211.9-39.5c64.4,33.2,87.3,81,87.3,199.4c2.1,112.2,56.1,349,105.9,450.8c79,164.1,268,205.7,401,89.3c114.3-101.8,124.7-157.9,108-666.9c-16.6-506.9-14.5-517.3,126.7-517.3c87.2,0,151.7,47.8,151.7,112.2c0,70.6,95.6,255.5,151.6,290.8c64.4,43.6,172.4,22.9,216.1-41.5c37.4-60.2,31.2-137.1-43.7-486.1c-72.7-340.7-324.1-1730.5-405.1-2243.6c-95.6-592.1-105.9-644-151.6-754.1c-45.7-106-122.6-180.7-187-180.7c-20.8,0-62.3-22.9-89.3-51.9l-51.9-49.9v-781.1v-779H7363.5H6337.2l-12.5,170.4c-6.2,95.6-16.6,452.9-22.8,795.7c-10.4,598.3-14.6,625.3-54,660.6c-24.9,18.7-64.4,35.3-89.3,35.3c-60.2,0-160,108-228.5,243.1c-91.4,182.8-378.1,1067.8-536,1647.4c-66.5,251.4-66.5,540.1,0,650.2c91.4,145.4,261.7,182.8,398.9,87.3c95.5-66.5,89.3-51.9,301.2-610.8c176.6-469.5,228.5-563,311.6-563c74.8,0,155.8,76.9,155.8,147.5c0,35.3-89.3,400.9-197.4,812.3c-108,411.3-220.2,851.8-251.4,980.6c-31.2,126.7-64.4,249.3-72.7,272.1c-76.9,178.7-101.8,511.1-49.8,612.8c45.7,89.3,180.7,151.7,297.1,139.2c170.4-18.7,199.4-68.6,388.5-652.3c155.8-479.9,172.4-517.3,232.7-552.6c49.9-29.1,81-33.2,135-18.7c120.5,31.2,124.6,64.4,68.6,577.5c-29.1,249.3-60.3,498.6-72.7,554.7c-54,261.8,118.4,490.3,351.1,461.2C7427.9,4647.8,7481.9,4629.1,7508.9,4610.5z"/>
    <path d="M2568.7,2437.4c-164.1-37.4-322-182.8-390.6-355.2c-16.6-37.4-31.2-72.7-33.2-76.9c-2.1-2.1-41.5,22.9-87.3,60.2c-307.5,247.2-770.7,105.9-916.2-280.5c-31.2-83.1-51.9-191.1-58.2-324.1l-12.5-199.4l-79,31.2c-66.5,24.9-103.9,27-220.2,8.3c-205.7-33.2-315.8-99.7-378.1-220.2c-81-157.9-78.9-270.1,27-895.4C551.5-595.6,755.1-1894.1,805-2265.9c49.9-365.6,101.8-533.9,201.5-650.2l70.6-83.1v-845.5v-843.4l51.9-49.9l49.9-51.9H2550h1371.1l54,45.7l54,47.8l18.7,826.8l20.8,826.8l124.6,114.3c207.7,193.2,295,409.3,677.2,1672.3c176.6,585.8,207.7,764.5,174.5,978.5c-41.5,276.3-135,413.4-355.2,523.5c-164.1,83.1-297.1,95.6-438.3,45.7c-58.2-20.8-78.9-20.8-78.9-4.2c0,12.5,45.7,193.2,101.8,398.9c160,583.8,176.6,731.3,114.3,941.1c-37.4,126.7-174.5,280.5-305.4,340.7c-216.1,103.9-471.6,91.4-635.7-29.1c-47.8-33.2-91.4-60.2-101.8-60.2c-8.3,0-27,41.6-41.5,93.5c-68.6,257.6-193.2,392.6-421.7,455C2755.7,2462.4,2685,2466.5,2568.7,2437.4z M2894.9,2063.5c133-118.4,135-160,43.6-870.4c-66.5-519.4-66.5-590-12.5-644c64.4-64.4,141.3-74.8,203.6-27c45.7,33.2,81,118.4,207.7,506.9c83.1,255.5,166.2,502.7,187,546.4c64.4,149.6,218.1,195.3,392.6,118.4c87.2-39.5,133-101.8,160-216c16.6-68.6-16.6-282.5-70.6-457c-76.9-257.6-527.7-2021.4-536-2106.5c-8.3-78.9-2.1-89.3,56.1-118.4c81-43.6,153.7-41.5,195.3,4.2c16.6,18.7,116.3,236.8,220.2,482c203.6,479.9,228.5,525.6,334.5,598.3c85.2,56.1,143.3,58.2,251.4,4.2c151.6-78.9,211.9-261.8,164.1-517.3c-45.7-255.5-467.4-1591.3-579.6-1838.5c-70.6-157.9-189-292.9-268-309.5c-35.3-6.2-68.6-33.3-83.1-64.4c-14.5-33.2-27-326.1-37.4-831l-14.5-781.1H2558.3H1409.5v816.4c0,704.3-4.2,822.7-33.2,862.1c-16.6,24.9-47.8,45.7-66.5,45.7c-37.4,0-112.2,97.6-149.6,195.3c-12.5,33.3-56.1,295-95.6,581.7c-87.3,621.2-351.1,2306-396.8,2526.2c-51.9,253.5-54,268-39.5,322c29.1,116.3,147.5,166.2,265.9,112.2c66.5-29.1,139.2-141.3,176.6-265.9c33.2-118.4,89.3-168.3,182.8-168.3c149.6,2.1,162,45.7,137.1,538.1c-12.5,247.2-12.5,440.4-2.1,479.9c31.2,105.9,99.7,201.5,174.5,236.8c114.3,54,189.1,43.6,282.5-41.5c101.8-91.4,143.3-214,160-475.7c10.4-155.8,20.8-193.2,60.2-232.7c56.1-56.1,176.6-64.4,224.4-14.5c41.5,41.5,45.7,58.2,85.2,434.2c37.4,351.1,56.1,428,128.8,525.6c62.3,83.1,110.1,105.9,228.5,105.9C2803.5,2127.9,2836.7,2115.4,2894.9,2063.5z"/>
</g>
</g>
</svg>