<svg xmlns="http://www.w3.org/2000/svg" width="800px" height="800px" viewBox="0 0 64 64">
    <defs>
        <style>.cls-1{fill:#6e6868;}</style>
    </defs>
    <title/>
    <g data-name="Layer 7" id="Layer_7">
        <path class="cls-1"
              d="M32,51C19.54,51,5,48.45,5,41.25c0-3.84,4.37-7.56,11.69-9.94a1,1,0,1,1,.62,1.9c-6.26,2-10.31,5.2-10.31,8C7,45.74,17.51,49,32,49s25-3.26,25-7.75c0-2.84-4-6-10.31-8a1,1,0,0,1,.62-1.9C54.63,33.69,59,37.41,59,41.25,59,48.45,44.46,51,32,51Z"/>
        <path class="cls-1"
              d="M32,41a61.75,61.75,0,0,1-15.27-2A1,1,0,0,1,16,38V26a1.1,1.1,0,0,1,.08-.4C16.8,19.86,23.71,15.4,32,15.4s15.2,4.46,15.92,10.2A1.1,1.1,0,0,1,48,26V38a1,1,0,0,1-.73,1A61.75,61.75,0,0,1,32,41ZM18,37.23A61.44,61.44,0,0,0,32,39a61.44,61.44,0,0,0,14-1.77V26.29a.71.71,0,0,1,0-.2c-.42-4.88-6.55-8.69-14-8.69s-13.54,3.81-14,8.69a.78.78,0,0,1,0,.21Z"/>
        <path class="cls-1"
              d="M32,35a61.75,61.75,0,0,1-15.27-2A1,1,0,1,1,17.27,31,60.91,60.91,0,0,0,32,33a60.91,60.91,0,0,0,14.73-2A1,1,0,1,1,47.27,33,61.75,61.75,0,0,1,32,35Z"/>
    </g>
</svg>