<svg width="25" height="25" viewBox="0 0 25 25" fill="none" xmlns="http://www.w3.org/2000/svg">
<path fill-rule="evenodd" clip-rule="evenodd" d="M6.79004 5.00757C6.79004 4.01301 7.18513 3.05918 7.88839 2.35592C8.59165 1.65266 9.54548 1.25757 10.54 1.25757C11.5346 1.25757 12.4884 1.65266 13.1917 2.35592C13.895 3.05918 14.29 4.01301 14.29 5.00757V18.5076C14.29 19.1043 14.053 19.6766 13.631 20.0986C13.2091 20.5205 12.6368 20.7576 12.04 20.7576C11.4433 20.7576 10.871 20.5205 10.449 20.0986C10.0271 19.6766 9.79004 19.1043 9.79004 18.5076V8.00757C9.79004 7.80866 9.86906 7.61789 10.0097 7.47724C10.1504 7.33659 10.3411 7.25757 10.54 7.25757C10.739 7.25757 10.9297 7.33659 11.0704 7.47724C11.211 7.61789 11.29 7.80866 11.29 8.00757V18.5076C11.29 18.7065 11.3691 18.8972 11.5097 19.0379C11.6504 19.1786 11.8411 19.2576 12.04 19.2576C12.239 19.2576 12.4297 19.1786 12.5704 19.0379C12.711 18.8972 12.79 18.7065 12.79 18.5076V5.00757C12.79 4.71209 12.7318 4.41951 12.6188 4.14653C12.5057 3.87355 12.34 3.62551 12.131 3.41658C11.9221 3.20765 11.6741 3.04191 11.4011 2.92884C11.1281 2.81577 10.8355 2.75757 10.54 2.75757C10.2446 2.75757 9.95198 2.81577 9.679 2.92884C9.40602 3.04191 9.15798 3.20765 8.94905 3.41658C8.74012 3.62551 8.57438 3.87355 8.46131 4.14653C8.34824 4.41951 8.29004 4.71209 8.29004 5.00757V18.5076C8.29004 19.5021 8.68513 20.456 9.38839 21.1592C10.0917 21.8625 11.0455 22.2576 12.04 22.2576C13.0346 22.2576 13.9884 21.8625 14.6917 21.1592C15.395 20.456 15.79 19.5021 15.79 18.5076V8.00757C15.79 7.80866 15.8691 7.61789 16.0097 7.47724C16.1504 7.33659 16.3411 7.25757 16.54 7.25757C16.739 7.25757 16.9297 7.33659 17.0704 7.47724C17.211 7.61789 17.29 7.80866 17.29 8.00757V18.5076C17.29 19.9 16.7369 21.2353 15.7523 22.2199C14.7678 23.2044 13.4324 23.7576 12.04 23.7576C10.6477 23.7576 9.31229 23.2044 8.32773 22.2199C7.34316 21.2353 6.79004 19.9 6.79004 18.5076V5.00757Z" fill="#6C757D"/>
</svg>
