<svg width="25" height="24" viewBox="0 0 25 24" fill="none" xmlns="http://www.w3.org/2000/svg">
<path d="M13.5418 7.97995H11.0234V11.0145H13.5418C14.3784 11.0145 15.059 10.3338 15.059 9.49724C15.059 8.66065 14.3784 7.97995 13.5418 7.97995Z" fill="#087990"/>
<path d="M20.5234 3.51662C15.8349 -1.17185 8.24584 -1.17256 3.55671 3.51662C-1.13181 8.20505 -1.13256 15.7942 3.55671 20.4834C8.24519 25.1718 15.8343 25.1725 20.5234 20.4834C25.2119 15.7949 25.2126 8.20575 20.5234 3.51662ZM13.5416 12.9854H11.0233V14.0178H13.0411C13.5853 14.0178 14.0265 14.459 14.0265 15.0032C14.0265 15.5474 13.5853 15.9886 13.0411 15.9886H11.0233V17.0054C11.0233 17.5496 10.5821 17.9908 10.0378 17.9908C9.49359 17.9908 9.0524 17.5496 9.0524 17.0054V15.9886H8.03571C7.49147 15.9886 7.05027 15.5474 7.05027 15.0032C7.05027 14.459 7.49147 14.0178 8.03571 14.0178H9.0524V12.9854H8.03571C7.49147 12.9854 7.05027 12.5442 7.05027 12C7.05027 11.4557 7.49147 11.0145 8.03571 11.0145H9.0524V6.99456C9.0524 6.45031 9.49359 6.00912 10.0378 6.00912H13.5416C15.465 6.00912 17.0297 7.5739 17.0297 9.49724C17.0297 11.4207 15.465 12.9854 13.5416 12.9854Z" fill="#087990"/>
</svg>
