<svg width="20" height="19" viewBox="0 0 20 19" fill="none" xmlns="http://www.w3.org/2000/svg">
<path d="M2.4429 12.7222C2.66559 12.9448 2.96758 13.0698 3.28246 13.0698C3.59734 13.0698 3.89933 12.9448 4.12202 12.7222L10.0001 6.84403L15.8783 12.7222C16.1022 12.9385 16.4022 13.0582 16.7136 13.0555C17.0249 13.0528 17.3228 12.9279 17.5429 12.7077C17.7631 12.4875 17.888 12.1897 17.8907 11.8783C17.8934 11.567 17.7737 11.267 17.5574 11.043L10.8397 4.32534C10.617 4.10272 10.315 3.97766 10.0001 3.97766C9.68527 3.97766 9.38328 4.10272 9.16059 4.32534L2.4429 11.043C2.22028 11.2657 2.09521 11.5677 2.09521 11.8826C2.09521 12.1975 2.22028 12.4995 2.4429 12.7222Z" fill="#575757"/>
</svg>
