<svg xmlns="http://www.w3.org/2000/svg" xmlns:xlink="http://www.w3.org/1999/xlink" fill="#6e6868" width="800px"
     height="800px" viewBox="0 0 1000 1000" version="1.1" enable-background="new 0 0 1000 1000" xml:space="preserve">
<g>
<g transform="translate(0.000000,511.000000) scale(0.100000,-0.100000)">
<path d="M4299.4,4985.2c-1187-164.6-2141.7-902.4-2747.8-2130.1C653.1,1040.7,475-1523.1,1075.3-3918.5c91-360.2,106.5-395,187.8-410.5c79.4-15.5,141.4,7.7,255.6,94.9c122,92.9,278.8,147.2,426,147.2c218.8,0,356.3-63.9,670-309.8c158.8-123.9,433.8-259.5,610-302.1c100.7-23.2,195.6-29,367.9-21.3c201.4,5.8,255.6,15.5,398.9,69.7c201.4,73.6,458.9,238.2,472.5,298.2c23.2,112.3,87.1,569.3,106.5,763c25.2,275,25.2,1020.5,0,1283.8c-50.3,493.8-178.2,1098-300.1,1413.6c-34.8,91-102.6,245.9-153,346.6c-50.4,98.8-87.1,184-83.3,187.8c3.9,3.9,60-13.6,125.9-40.7c447.3-182,1028.3-255.6,1481.4-185.9c93,13.5,174.3,21.3,180.1,17.4c3.9-5.8-31-91-77.5-191.7c-247.9-532.5-348.6-1084.4-373.8-2031.3c-17.4-726.2,50.4-1477.5,149.1-1636.3c139.4-224.6,445.4-360.2,823-364c331.1-3.9,577.1,87.1,883,331.1c89.1,69.7,211.1,156.9,269.2,191.7c123.9,75.5,348.6,151,505.4,170.4c176.2,21.3,398.9-38.7,538.3-147.2c118.1-93,267.2-2,352.4,214.9c91,240.1,211.1,772.6,276.9,1249c127.8,894.6,143.3,2157.2,38.7,3069.2c-102.6,898.5-302.1,1622.7-631.3,2286.9c-271.1,548-565.4,937.2-1111.5,1469.8c-600.3,584.8-1156.1,842.3-1973.3,910.1c-137.5,11.6-304,29-367.9,38.7C4952,5018.1,4510.5,5014.3,4299.4,4985.2z M5887.3,4597.9c586.7-129.8,1101.8-435.7,1467.8-873.3c261.4-311.8,416.3-610,520.9-1014.7c65.8-251.7,83.3-685.5,36.8-956.6c-91-536.4-309.8-950.8-706.8-1347.7c-397-395-793.9-608-1357.4-730c-226.6-48.4-770.7-48.4-1010.8,0c-528.6,106.5-997.3,356.3-1371,730c-629.3,629.3-869.5,1500.7-648.7,2354.7c180.1,689.4,706.8,1316.8,1371,1632.4c197.5,93,480.3,184,671.9,215c79.4,11.6,158.8,25.2,174.3,29C5118.5,4656,5755.6,4627,5887.3,4597.9z M3832.8,4561.2c-3.9-3.9-73.6-52.3-153-104.6c-602.2-406.7-1032.1-1036-1190.9-1752.5c-50.3-220.8-60-759.1-19.4-1005c98.8-590.6,352.4-1082.5,811.4-1558.8c451.2-470.5,797.8-1198.7,931.4-1951.9c112.3-633.2,118.1-1392.3,17.4-2161.1l-31-244l-104.6-62c-162.7-100.7-319.5-143.3-530.6-145.2c-315.6-1.9-540.3,91-898.5,373.8c-300.2,234.3-491.9,304-807.5,288.5c-141.4-5.8-209.1-19.4-307.9-62c-166.5-69.7-178.2-69.7-195.6-1.9c-87.1,311.8-218.8,1094.1-282.7,1675c-48.4,453.1-48.4,1682.8,0,2101c112.3,939.2,275,1599.5,586.8,2372.1c395,976,1007,1702.1,1740.8,2072C3608.1,4499.2,3875.4,4601.8,3832.8,4561.2z M8350.5,2216.1c222.7-507.3,402.8-1212.2,478.3-1868.7C9016.6-1263.6,8972-2592,8693.2-3707.4c-31-127.8-60-236.2-65.8-240.1c-3.9-3.9-56.2,9.7-116.2,32.9c-160.7,60-340.8,71.6-534.5,32.9c-391.2-79.4-611.9-189.8-883-441.5c-236.3-218.8-317.6-253.7-619.7-263.3c-282.7-9.7-455.1,31-573.2,135.5c-67.8,60-73.6,75.5-100.7,247.9c-48.4,325.3-67.8,619.7-67.8,1074.7c0,1196.7,170.4,1990.7,536.4,2494.1c58.1,79.4,96.8,106.5,292.4,197.5c821.1,391.2,1372.9,1057.3,1584,1917.1c46.5,187.8,54.2,251.7,54.2,542.2c1.9,182-3.9,381.5-13.6,445.4l-13.6,116.2l52.3-96.8C8251.7,2434.9,8309.8,2312.9,8350.5,2216.1z"/>
    <path d="M5345.1,4092.5c-27.1-3.9-114.2-17.4-193.6-29c-187.8-27.1-497.7-129.7-668.1-220.8c-549.9-292.4-900.4-902.4-900.4-1568.5c0-654.5,356.3-1146.4,997.3-1376.8c123.9-44.5,573.2-60,761-27.1c286.6,50.3,546.1,189.8,780.4,424.1c189.8,187.8,275,335,358.2,615.8c62,211.1,83.3,534.4,46.5,755.2c-75.5,468.6-344.7,869.5-737.8,1092.1l-104.6,60l135.6-11.6c185.9-15.5,395-75.5,590.6-172.3c294.3-143.3,582.9-478.3,679.7-788.1c125.9-402.8,116.2-873.3-23.2-1189c-32.9-75.5-36.8-100.7-17.4-156.9c32.9-96.8,58.1-112.3,137.5-69.7c83.3,44.5,139.4,143.3,189.8,331.1c160.7,598.4,38.7,1260.6-319.5,1725.4c-288.5,375.7-778.4,590.6-1392.3,608C5515.5,4098.3,5372.2,4098.3,5345.1,4092.5z M5296.7,3591c331.1-69.7,631.3-302.1,772.6-594.5c102.6-213,133.6-381.5,122-664.2c-13.6-369.9-123.9-644.8-350.5-873.3c-377.6-377.6-1036-420.2-1516.3-98.8c-228.5,151-373.7,360.2-443.4,633.2c-42.6,164.6-27.1,491.9,29,693.2c81.3,278.9,253.7,559.6,441.5,714.6c137.5,114.2,263.3,193.6,315.6,205.3C4779.7,3627.8,5168.9,3618.1,5296.7,3591z"/>
</g>
</g>
</svg>