
<svg xmlns="http://www.w3.org/2000/svg" width="50" height="50" viewBox="0 0 120 120" fill="none">
                                <path d="M92.0812 83.2141L81.7438 79.7687C75.85 77.8031 72.0172 75.125 68.6406 66.6109L68.1656 65.4219C65.2406 58.1187 62.7156 51.8125 68.4922 43.0469C75.7984 31.9578 84.0266 19.7437 84.1078 19.6219C84.2363 19.4313 84.3212 19.2148 84.3563 18.9877C84.3915 18.7605 84.376 18.5285 84.3111 18.308C84.2462 18.0876 84.1334 17.8842 83.9807 17.7123C83.8281 17.5405 83.6394 17.4045 83.4281 17.3141L50.6156 3.25156C50.4132 3.16482 50.1947 3.12186 49.9744 3.1255C49.7542 3.12915 49.5372 3.17931 49.3377 3.27271C49.1383 3.3661 48.9608 3.50062 48.8169 3.66743C48.6731 3.83424 48.5662 4.02958 48.5031 4.24062L47.8219 6.525C47.7072 6.92117 47.7538 7.34662 47.9516 7.70856C48.1493 8.0705 48.4821 8.33958 48.8774 8.45713C49.2728 8.57468 49.6985 8.53115 50.0619 8.33605C50.4253 8.14095 50.6968 7.81009 50.8172 7.41562L50.9969 6.81406L80.4641 19.4422C79.4328 20.975 77.7172 23.5328 75.6516 26.6234L65.8297 22.2016C65.6414 22.1076 65.4361 22.0526 65.2261 22.0399C65.0161 22.0272 64.8057 22.0571 64.6075 22.1277C64.4093 22.1983 64.2274 22.3082 64.0727 22.4508C63.918 22.5934 63.7937 22.7658 63.7073 22.9577C63.6209 23.1495 63.5741 23.3568 63.5697 23.5672C63.5653 23.7775 63.6035 23.9866 63.6819 24.1818C63.7603 24.3771 63.8773 24.5545 64.026 24.7034C64.1746 24.8523 64.3518 24.9697 64.5469 25.0484L73.8906 29.2594C72.9969 30.5984 72.0625 31.9984 71.1062 33.4391L61.2656 29.0125C61.0781 28.9253 60.875 28.8763 60.6684 28.8682C60.4617 28.8601 60.2555 28.8931 60.0617 28.9653C59.8678 29.0375 59.6903 29.1475 59.5393 29.2889C59.3883 29.4302 59.2669 29.6002 59.1821 29.7888C59.0973 29.9775 59.0508 30.1811 59.0453 30.3878C59.0397 30.5946 59.0753 30.8004 59.15 30.9933C59.2246 31.1862 59.3368 31.3623 59.48 31.5116C59.6232 31.6608 59.7947 31.7801 59.9844 31.8625L69.3547 36.0781C68.1984 37.8219 67.0297 39.5891 65.8828 41.3281C59.2078 51.4578 62.2859 59.1484 65.2641 66.5859L65.7344 67.7641C69.0547 76.1328 73.125 80.1906 80.7562 82.7328L82.6406 83.3594C81.7169 85.1178 81.2394 87.0763 81.25 89.0625C81.2768 90.6568 81.5476 92.2377 82.0531 93.75H78.3344C77.92 93.75 77.5225 93.9146 77.2295 94.2076C76.9365 94.5007 76.7719 94.8981 76.7719 95.3125C76.7719 95.7269 76.9365 96.1243 77.2295 96.4174C77.5225 96.7104 77.92 96.875 78.3344 96.875H89.8656C91.5296 96.8738 93.139 96.2808 94.4059 95.2021C95.6729 94.1233 96.5148 92.629 96.7812 90.9865C97.0476 89.3439 96.7211 87.6602 95.8601 86.2362C94.999 84.8123 93.6596 83.7411 92.0812 83.2141ZM89.8641 93.75H85.3547C84.7543 92.2575 84.4226 90.6705 84.375 89.0625C84.3726 87.4095 84.8228 85.7873 85.6766 84.3719L91.0922 86.1766C91.9682 86.4678 92.712 87.0614 93.1902 87.8511C93.6684 88.6407 93.8499 89.5748 93.7021 90.4861C93.5543 91.3974 93.087 92.2263 92.3837 92.8243C91.6804 93.4224 90.7872 93.7505 89.8641 93.75ZM70.2078 83.2141L59.8688 79.7687C53.975 77.8031 50.1422 75.125 46.7656 66.6109L46.2906 65.4219C43.3656 58.1187 40.8406 51.8125 46.6172 43.0469C53.9234 31.9578 62.1516 19.7437 62.2328 19.6219C62.3613 19.4313 62.4462 19.2148 62.4813 18.9877C62.5165 18.7605 62.501 18.5285 62.4361 18.308C62.3712 18.0876 62.2584 17.8842 62.1057 17.7123C61.9531 17.5405 61.7644 17.4045 61.5531 17.3141L28.7406 3.25156C28.5381 3.16455 28.3194 3.12138 28.099 3.12489C27.8786 3.1284 27.6614 3.17851 27.4618 3.27193C27.2621 3.36534 27.0844 3.49995 26.9405 3.6669C26.7966 3.83386 26.6896 4.02938 26.6266 4.24062C26.5766 4.41094 21.5031 21.4203 18.8109 30.8188C17.1006 36.5065 13.9936 41.6755 9.77344 45.8547C6.35469 49.6609 3.125 53.2547 3.125 59.375C3.125 69.375 10.8781 73.6344 19.0875 78.1438C20.7562 79.0609 22.4781 80.0047 24.2016 81.0297C26.9438 82.7663 29.3231 85.0183 31.2078 87.6609C34.8266 92.1922 38.5672 96.875 51.5625 96.875H67.9891C69.6533 96.8746 71.2632 96.2821 72.5307 95.2036C73.7982 94.125 74.6407 92.6308 74.9075 90.988C75.1744 89.3453 74.8481 87.6612 73.987 86.2369C73.126 84.8127 71.7864 83.7412 70.2078 83.2141ZM49.2297 33.4375L24.5344 22.3188L25.9406 17.5375L52.0094 29.2641L49.2297 33.4375ZM29.1219 6.8125L58.5891 19.4406C57.5578 20.975 55.8391 23.5344 53.7719 26.6281L26.8359 14.5156C27.7937 11.2812 28.6219 8.49063 29.1219 6.8125ZM6.25 59.375C6.25 55.1031 8.19687 52.375 10.8469 49.35C12.4084 50.8406 13.6404 52.6418 14.4634 54.6376C15.2863 56.6334 15.682 58.7795 15.625 60.9375C15.6664 64.3963 14.6088 67.7791 12.6047 70.5984C8.75469 67.7781 6.25 64.5016 6.25 59.375ZM33.65 85.7109C31.5326 82.7721 28.8664 80.2709 25.7984 78.3453C24.0422 77.3016 22.2906 76.3375 20.5922 75.4047C18.6766 74.3531 16.8625 73.3531 15.2016 72.3297C17.5437 68.9954 18.7844 65.0121 18.75 60.9375C18.8037 58.339 18.3132 55.7581 17.3101 53.3604C16.3069 50.9628 14.8132 48.8016 12.925 47.0156C17.0789 42.6932 20.1288 37.4324 21.8156 31.6797C22.3516 29.8078 22.9828 27.6328 23.65 25.3484L47.4797 36.0766C46.3234 37.8203 45.1547 39.5875 44.0078 41.3266C37.3328 51.4578 40.4109 59.1469 43.3891 66.5844L43.8594 67.7641C47.1797 76.1328 51.25 80.1891 58.8812 82.7328L60.7656 83.3594C59.8419 85.1178 59.3644 87.0763 59.375 89.0625C59.4018 90.6568 59.6726 92.2377 60.1781 93.75H51.5625C40.0703 93.75 37.0937 90.0234 33.65 85.7109ZM67.9891 93.75H63.4797C62.8793 92.2575 62.5476 90.6705 62.5 89.0625C62.4976 87.4095 62.9478 85.7873 63.8016 84.3719L69.2172 86.1766C70.0932 86.4678 70.837 87.0614 71.3152 87.8511C71.7934 88.6407 71.9749 89.5748 71.8271 90.4861C71.6793 91.3974 71.212 92.2263 70.5087 92.8243C69.8054 93.4224 68.9122 93.7505 67.9891 93.75Z" fill="#575757"/>
                            </svg>
