<svg xmlns="http://www.w3.org/2000/svg" width="50" height="50" viewBox="0 0 100 100" fill="none">
    <path d="M90.1422 44.3563C88.1601 32.0761 85.5246 19.9104 82.2469 7.91094C82.1438 7.5344 81.9034 7.2101 81.5732 7.00189C81.2429 6.79368 80.8467 6.71664 80.4625 6.78594C51.2063 12.0406 34.1969 9.31406 17.8172 6.77969C17.4252 6.71952 17.025 6.81068 16.6977 7.03467C16.3704 7.25867 16.1405 7.59874 16.0547 7.98594C14.8844 13.2828 13.5203 19.5719 12.2734 26.0375C12.2089 26.4385 12.303 26.8488 12.5358 27.1816C12.7686 27.5143 13.1218 27.7434 13.5206 27.8202C13.9194 27.897 14.3324 27.8155 14.6722 27.5929C15.0119 27.3704 15.2517 27.0244 15.3406 26.6281C15.7781 24.3672 16.2297 22.1438 16.6813 19.9578C24.0819 21.9222 31.6432 23.2222 39.275 23.8422C38.9085 24.6056 38.4668 25.3306 37.9563 26.0062C36.3894 27.9854 34.3527 29.5414 32.0313 30.5328C31.6692 30.7133 31.3913 31.0272 31.256 31.4084C31.1207 31.7897 31.1385 32.2085 31.3057 32.5769C31.4728 32.9452 31.7764 33.2344 32.1524 33.3836C32.5284 33.5327 32.9477 33.5302 33.3219 33.3766C36.1163 32.1736 38.5648 30.2897 40.4438 27.8969C41.253 26.8093 41.9356 25.633 42.4781 24.3906L42.6234 24.0828C44.213 24.1755 45.8037 24.238 47.3953 24.2703C47.5938 31.8828 47.7219 38.4047 47.85 44.9141C47.9281 48.9734 48.0094 53.0328 48.1047 57.3625L48.1359 58.7156C35.6912 58.577 23.2913 57.1978 11.1203 54.5984C11.4375 51.7313 11.7688 48.8672 12.1422 46.0188C12.6578 42.0969 13.2813 38.0563 14.0453 33.6672C14.1078 33.2627 14.0092 32.8499 13.7705 32.5174C13.5319 32.185 13.1723 31.9594 12.7692 31.8892C12.366 31.819 11.9514 31.9098 11.6144 32.142C11.2774 32.3743 11.0451 32.7295 10.9672 33.1313C10.1938 37.5641 9.56563 41.6453 9.04532 45.6109C7.2141 59.5726 6.06638 73.6154 5.60625 87.6891C5.59444 88.0388 5.70046 88.3823 5.90731 88.6645C6.11416 88.9468 6.40984 89.1513 6.74688 89.2453C18.9355 92.6492 31.6744 93.6239 44.2391 92.1141C44.566 92.0751 44.8722 91.9338 45.1141 91.7105C45.356 91.4871 45.5211 91.1931 45.5859 90.8703C46.5641 86.0156 47.5813 80.2672 48.5656 74.7094C48.8719 72.975 49.1844 71.2203 49.4953 69.4812C49.6328 71.0422 49.7703 72.6141 49.9031 74.1687C50.375 79.5937 50.8641 85.2031 51.3688 89.9219C51.4031 90.2464 51.5383 90.552 51.7552 90.7957C51.9721 91.0395 52.2598 91.2093 52.5781 91.2812C66.044 94.3146 80.0651 93.8183 93.2828 89.8406C93.6129 89.7417 93.9009 89.5363 94.1019 89.2565C94.3028 88.9766 94.4055 88.6381 94.3938 88.2937C93.9031 73.5731 92.4821 58.8981 90.1422 44.3563ZM53.0156 73.8563C52.6739 69.8461 52.3119 65.8377 51.9297 61.8312C64.3436 61.7012 76.715 60.3573 88.8672 57.8188C89.3714 61.9375 89.7984 66.0677 90.1484 70.2094C77.8953 72.466 65.4737 73.6854 53.0156 73.8547V73.8563ZM88.4906 54.7063C76.3611 57.2601 64.0075 58.6001 51.6125 58.7062C51.5922 58.525 51.5734 58.325 51.5547 58.1438C51.5516 58.1172 51.5359 58.0937 51.5313 58.0656L55.1609 56.0031C56.4576 55.2677 57.5269 54.1895 58.2514 52.8867C58.976 51.5839 59.328 50.1068 59.2688 48.6172C59.1047 44.2625 58.9766 40.4031 58.85 36.6328C58.7313 33.0547 58.6125 29.5437 58.4719 25.7781C58.9677 27.0821 59.2576 28.4553 59.3313 29.8484C59.3464 30.2626 59.5254 30.6539 59.829 30.936C60.1326 31.2182 60.5358 31.3683 60.95 31.3531C61.3642 31.338 61.7554 31.159 62.0376 30.8554C62.3198 30.5518 62.4698 30.1486 62.4547 29.7344C62.3454 27.7052 61.8678 25.7129 61.0453 23.8547L61.3578 23.8297C64.35 27.1391 67.6266 25.125 68.9875 22.9547C73.4246 22.3149 77.8266 21.4513 82.1766 20.3672C84.0981 28.4678 85.7267 36.6351 87.0594 44.8531C87.5865 48.1229 88.0635 51.4073 88.4906 54.7063ZM33.3016 20.0813C33.1338 19.9 33.0138 19.6798 32.9525 19.4406C32.8911 19.2013 32.8902 18.9506 32.95 18.7109C33.325 17.4797 36.9969 16.9406 39.7234 16.6219C38.3576 17.2913 37.0314 18.0389 35.7516 18.8609C35.0295 19.384 34.2345 19.7983 33.3922 20.0906L33.3016 20.0813ZM42.4391 18.8484C42.2547 19.0406 42.0484 19.2125 41.875 19.4156C41.4935 19.8658 41.1452 20.3431 40.8328 20.8438C40.1484 20.7938 39.4635 20.7385 38.7781 20.6781C39.952 19.9799 41.1756 19.3689 42.4391 18.85V18.8484ZM60.3469 17.9C62.2582 18.2248 64.1038 18.8591 65.8109 19.7781C65.9905 19.8915 66.158 20.0229 66.3109 20.1703C65.1166 20.3231 63.9201 20.459 62.7219 20.5781C61.9992 19.6266 61.2052 18.7313 60.3469 17.9ZM48.6375 18.3531C50.8169 18.6323 52.8913 19.4543 54.6703 20.7438C54.8313 20.8578 54.975 20.9781 55.1234 21.0984C53.7161 21.1526 52.3083 21.1839 50.9 21.1922C48.8107 21.2015 46.7215 21.1582 44.6344 21.0625C45.765 19.8899 47.1287 18.967 48.6375 18.3531ZM55.2859 24.2281C55.4578 28.6406 55.5906 32.6359 55.7266 36.7391C55.8531 40.5125 55.9813 44.375 56.1469 48.7344C56.1838 49.6526 55.9671 50.5632 55.5206 51.3664C55.0741 52.1695 54.415 52.8342 53.6156 53.2875L51.1734 54.675C51.1016 51.3109 51.0391 48.0813 50.975 44.8531C50.8484 38.3953 50.7219 31.9406 50.5266 24.4109L55.2859 24.2281ZM18.7906 10.0906C32.1891 12.1594 49.6391 15.2594 79.6031 10.1078C80.2469 12.5016 80.8531 14.9125 81.4453 17.3266C77.5318 18.3036 73.5875 19.0953 69.6125 19.7016C69.2519 18.6215 68.5029 17.7138 67.5109 17.1547C63.6781 14.6688 54.55 13.6891 49.45 13.3266V13.3422C47.1969 12.9438 31.5578 12.5563 29.9594 17.7953C29.7973 18.3663 29.7505 18.9639 29.8219 19.5531C25.624 18.876 21.4573 17.9901 17.3219 16.8953C17.8234 14.5266 18.3219 12.2281 18.7906 10.0906ZM47.7219 61.8297C46.9731 65.8248 46.248 69.8244 45.5469 73.8281C33.517 73.5789 21.5275 72.3509 9.69688 70.1563C10.0047 66.0047 10.3594 61.8562 10.7875 57.7187C22.9354 60.2902 35.3058 61.6671 47.7219 61.8297ZM42.7438 89.1406C31.3567 90.3696 19.8407 89.4941 8.77032 86.5578C8.92657 82.1453 9.17969 77.7203 9.47344 73.2953C21.1986 75.4513 33.0767 76.6713 44.9953 76.9437C44.2453 81.1656 43.4828 85.3891 42.7438 89.1406ZM54.3578 88.4703C53.9708 84.6419 53.6135 80.8105 53.2859 76.9766C65.7388 76.794 78.1549 75.5774 90.4063 73.3391C90.7625 77.9562 91.0594 82.5734 91.2297 87.1875C79.2244 90.5952 66.5709 91.0355 54.3578 88.4703Z" fill="#575757"></path>
</svg>