<svg width="25" height="25" viewBox="0 0 25 25" fill="none" xmlns="http://www.w3.org/2000/svg">
<g clip-path="url(#clip0_532_2670)">
<path fill-rule="evenodd" clip-rule="evenodd" d="M0.0400391 3.50757C0.0400391 2.71192 0.35611 1.94886 0.918719 1.38625C1.48133 0.823639 2.24439 0.507568 3.04004 0.507568L21.04 0.507568C21.8357 0.507568 22.5987 0.823639 23.1614 1.38625C23.724 1.94886 24.04 2.71192 24.04 3.50757V21.5076C24.04 22.3032 23.724 23.0663 23.1614 23.6289C22.5987 24.1915 21.8357 24.5076 21.04 24.5076H3.04004C2.24439 24.5076 1.48133 24.1915 0.918719 23.6289C0.35611 23.0663 0.0400391 22.3032 0.0400391 21.5076V3.50757ZM22.54 6.50757H16.54V11.0076H22.54V6.50757ZM22.54 12.5076H16.54V17.0076H22.54V12.5076ZM22.54 18.5076H16.54V23.0076H21.04C21.4379 23.0076 21.8194 22.8495 22.1007 22.5682C22.382 22.2869 22.54 21.9054 22.54 21.5076V18.5076ZM15.04 23.0076V18.5076H9.04004V23.0076H15.04ZM7.54004 23.0076V18.5076H1.54004V21.5076C1.54004 21.9054 1.69807 22.2869 1.97938 22.5682C2.26068 22.8495 2.64221 23.0076 3.04004 23.0076H7.54004ZM1.54004 17.0076H7.54004V12.5076H1.54004V17.0076ZM1.54004 11.0076H7.54004V6.50757H1.54004V11.0076ZM9.04004 6.50757V11.0076H15.04V6.50757H9.04004ZM15.04 12.5076H9.04004V17.0076H15.04V12.5076Z" fill="#087990"/>
</g>
<defs>
<clipPath id="clip0_532_2670">
<rect width="24" height="24" fill="white" transform="translate(0.0400391 0.507568)"/>
</clipPath>
</defs>
</svg>
