<svg xmlns="http://www.w3.org/2000/svg" width="50" height="50" viewBox="-10 -10 120 120" fill="none">
        <g clip-path="url(#clip0_717_2631)">
        <path d="M98.5141 19.2049H1.48594C1.29079 19.2049 1.09756 19.2433 0.917264 19.3179C0.73697 19.3926 0.573152 19.5021 0.435165 19.64C0.297177 19.778 0.187725 19.9419 0.113059 20.1221C0.0383925 20.3024 -2.48949e-05 20.4957 7.59925e-07 20.6908V46.1865C-0.000221383 46.406 0.0482623 46.6227 0.141954 46.8211C0.235646 47.0196 0.372211 47.1947 0.541798 47.334L40.7955 80.4564C40.7967 80.4574 40.7988 80.4576 40.8 80.4586C41.0648 80.676 41.3968 80.7948 41.7395 80.7947H58.2627C58.6207 80.7947 58.949 80.6678 59.2055 80.4568L59.2066 80.4562L99.4582 47.334C99.6278 47.1947 99.7643 47.0196 99.858 46.8212C99.9517 46.6228 100 46.4061 100 46.1867V20.691C100 20.4959 99.9616 20.3026 99.8869 20.1223C99.8123 19.942 99.7028 19.7782 99.5649 19.6402C99.4269 19.5022 99.263 19.3927 99.0828 19.318C98.9025 19.2433 98.7092 19.2049 98.5141 19.2049ZM5.82031 47.8289C8.26582 48.0078 10.6051 48.3396 12.8094 48.8242C12.9168 48.8479 13.0242 48.8594 13.1297 48.8594C13.4954 48.8582 13.8479 48.7223 14.1197 48.4775C14.3915 48.2328 14.5635 47.8964 14.6028 47.5328C14.6421 47.1692 14.546 46.8039 14.3328 46.5067C14.1196 46.2095 13.8043 46.0014 13.4473 45.9221C10.1939 45.2066 6.67656 44.8027 2.97188 44.7178V29.7953H33.8934L31.4162 55.0768C28.1205 51.9971 23.8627 49.2025 18.3688 47.3023C18.1838 47.2364 17.9876 47.2078 17.7916 47.2181C17.5955 47.2284 17.4034 47.2775 17.2264 47.3625C17.0494 47.4475 16.8911 47.5667 16.7604 47.7133C16.6298 47.8598 16.5295 48.0308 16.4653 48.2164C16.4012 48.402 16.3744 48.5984 16.3866 48.7944C16.3988 48.9903 16.4497 49.1819 16.5364 49.3581C16.6231 49.5342 16.7439 49.6915 16.8917 49.8207C17.0395 49.9499 17.2115 50.0486 17.3977 50.1109C26.2408 53.1697 32.7703 59.0016 36.8047 67.4441C38.2945 70.5621 39.1514 73.4816 39.6393 75.657L5.82031 47.8289ZM56.9328 77.8232H43.066C42.76 75.6619 41.8918 71.2352 39.5375 66.2709C38.3109 63.6844 36.5699 60.751 34.1254 57.9008L36.8793 29.7953H63.0713L65.8287 57.9377C64.7474 59.2046 63.754 60.5439 62.8557 61.9465C58.6428 68.5242 57.3248 75.043 56.9328 77.8232ZM60.3578 75.6609C61.043 72.6059 62.4619 68.0717 65.3582 63.5492C68.3041 58.9498 72.1818 55.2857 76.8838 52.659C81.7658 49.9318 87.5695 48.3156 94.1777 47.8307L60.3578 75.6609ZM97.0283 26.8236H83.5738C83.3787 26.8236 83.1854 26.862 83.0052 26.9367C82.8249 27.0114 82.661 27.1208 82.5231 27.2588C82.3851 27.3968 82.2756 27.5606 82.201 27.7409C82.1263 27.9212 82.0879 28.1144 82.0879 28.3096C82.0879 28.7037 82.2444 29.0816 82.5231 29.3603C82.8018 29.639 83.1797 29.7955 83.5738 29.7955H97.0283V44.7178C88.7092 44.9078 81.4508 46.7043 75.4344 50.065C72.9121 51.474 70.609 53.157 68.5361 55.098L66.057 29.7955H78.6203C78.8155 29.7955 79.0087 29.7571 79.189 29.6824C79.3693 29.6078 79.5331 29.4983 79.6711 29.3603C79.8091 29.2224 79.9185 29.0585 79.9932 28.8782C80.0679 28.698 80.1063 28.5047 80.1063 28.3096C80.1063 27.9155 79.9497 27.5375 79.671 27.2589C79.3924 26.9802 79.0144 26.8236 78.6203 26.8236H2.97168V22.177H97.0281V26.8236H97.0283Z" fill="#575757"/>
        </g>
        <defs>
        <clipPath id="clip0_717_2631">
        <rect width="100" height="100" fill="white"/>
        </clipPath>
        </defs>
</svg>