<svg width="26" height="26" viewBox="0 0 26 26" fill="none" xmlns="http://www.w3.org/2000/svg">
<rect x="6.5" y="6.5" width="13" height="13" fill="#585B5F"/>
<path d="M11.4834 17.9833L19.1209 10.3458L17.6042 8.82916L11.4834 14.95L8.39591 11.8625L6.87925 13.3792L11.4834 17.9833ZM13.0001 23.8333C11.5015 23.8333 10.0931 23.5488 8.77508 22.9797C7.45703 22.4105 6.3105 21.6389 5.3355 20.6646C4.3605 19.6896 3.5888 18.543 3.02041 17.225C2.45203 15.9069 2.16747 14.4986 2.16675 13C2.16675 11.5014 2.4513 10.093 3.02041 8.77499C3.58953 7.45693 4.36122 6.31041 5.3355 5.33541C6.3105 4.36041 7.45703 3.58871 8.77508 3.02032C10.0931 2.45193 11.5015 2.16738 13.0001 2.16666C14.4987 2.16666 15.907 2.45121 17.2251 3.02032C18.5431 3.58943 19.6897 4.36113 20.6647 5.33541C21.6397 6.31041 22.4117 7.45693 22.9808 8.77499C23.5499 10.093 23.8341 11.5014 23.8334 13C23.8334 14.4986 23.5489 15.9069 22.9797 17.225C22.4106 18.543 21.6389 19.6896 20.6647 20.6646C19.6897 21.6396 18.5431 22.4116 17.2251 22.9807C15.907 23.5498 14.4987 23.834 13.0001 23.8333Z" fill="#F6EC4E"/>
</svg>
