<svg width="182" height="84" viewBox="0 0 182 84" fill="none" xmlns="http://www.w3.org/2000/svg">
<path d="M8 42.5133V76.0266H47.3885H86.777V70.4411V64.8556L52.9773 64.8177L19.1585 64.7608L19.1013 36.871L19.0631 9H13.5316H8V42.5133Z" fill="#575757"/>
<path d="M30.5078 31.2475V53.495H36.1347H41.7616V36.7385V19.9818H47.3886H53.0155V36.7385V53.495H58.6424H64.2693V36.7385V19.9818H69.8963H75.5232V14.4909V9H53.0155H30.5078V31.2475Z" fill="#575757"/>
<path d="M75.5232 36.8331V53.495H81.1501H86.777V36.8331V20.1711H81.1501H75.5232V36.8331Z" fill="#575757"/>
<path d="M97.8415 9.24622C97.7843 9.37872 97.7652 13.0709 97.7843 17.4447L97.8415 25.397L99.5391 25.4538L101.237 25.5105L101.141 20.0007C101.103 16.9902 101.103 14.5099 101.16 14.5099C101.218 14.5099 102.267 16.9713 103.468 19.9629L105.662 25.397H107.093H108.523L109.515 23.1059C110.049 21.8563 111.022 19.4706 111.67 17.8044C112.319 16.1572 112.91 14.7181 113.006 14.6235C113.101 14.5288 113.158 16.8009 113.139 19.9251L113.101 25.397L114.78 25.4538L116.439 25.5105V17.2553V9.01898H114.341H112.243L111.766 10.0794C111.499 10.6663 110.412 13.3549 109.343 16.0435C108.256 18.7322 107.321 20.9474 107.245 20.9474C107.188 20.9474 106.52 19.4327 105.776 17.5772C105.033 15.7406 103.926 13.0709 103.297 11.6697L102.152 9.11371L100.035 9.05687C98.4519 9.01898 97.8987 9.07582 97.8415 9.24622Z" fill="#575757"/>
<path d="M126.014 9.71947C125.461 10.7988 118.919 25.2455 118.919 25.378C118.919 25.6052 122.486 25.4916 122.676 25.2455C122.791 25.1318 123.115 24.3934 123.401 23.636L123.935 22.2728L128.132 22.3107L132.328 22.3675L132.996 23.92L133.663 25.4916H135.437C136.41 25.4916 137.249 25.4348 137.287 25.3401C137.345 25.2643 135.8 21.5912 133.873 17.1606L130.382 9.11356L128.38 9.05684L126.377 9L126.014 9.71947ZM129.734 15.6459L131.088 19.054H128.151H125.232L126.568 15.8163C128.017 12.2756 128.036 12.2377 128.246 12.2377C128.322 12.2377 129.009 13.7714 129.734 15.6459Z" fill="#575757"/>
<path d="M139.137 17.2553V25.5105L140.816 25.4538L142.476 25.3969L142.533 23.2574L142.59 21.1367H147.702H152.814L153.844 23.2574L154.874 25.3969L156.743 25.4538C157.754 25.4727 158.593 25.4348 158.593 25.3591C158.593 25.2834 157.983 24.0337 157.239 22.6137C156.514 21.1746 155.98 20.0007 156.056 20.0007C156.362 20.0007 157.868 18.3914 158.269 17.634C158.612 17.0091 158.689 16.5548 158.689 15.0778C158.689 13.5442 158.612 13.1467 158.212 12.3704C157.621 11.2154 156.571 10.2497 155.179 9.60592L154.111 9.11368L146.634 9.05684L139.137 9V17.2553ZM153.977 12.6732C155.77 13.6389 155.789 16.4032 154.015 17.4446C153.386 17.8044 152.966 17.8233 147.969 17.8802L142.571 17.9369V15.0778V12.2188L147.969 12.2756C152.718 12.3325 153.424 12.3703 153.977 12.6732Z" fill="#575757"/>
<path d="M161.55 9.24622C161.493 9.37872 161.473 13.0709 161.493 17.4447L161.55 25.397H163.266H164.983L165.04 22.519L165.098 19.641L165.975 18.9594L166.871 18.2778L167.215 18.7132C167.386 18.9594 168.683 20.5499 170.076 22.2729L172.613 25.397L174.864 25.4538C176.084 25.4728 177.095 25.4349 177.095 25.3401C177.095 25.2076 174.635 22.3486 169.523 16.5737C169.275 16.2897 169.637 15.911 172.975 12.7868C175.035 10.8745 176.714 9.24621 176.714 9.17043C176.714 9.07582 175.722 9.01898 174.501 9.01898H172.289L168.741 12.4271L165.174 15.8163L165.078 12.465L164.983 9.11371L163.305 9.05687C162.084 9.01898 161.607 9.07582 161.55 9.24622Z" fill="#575757"/>
<path d="M166.795 32.8002C163.572 33.6711 162.027 36.0004 162.809 38.84C163.114 39.9007 164.354 41.0556 165.708 41.5479C166.299 41.7748 167.844 42.097 169.122 42.2479C170.419 42.3999 171.774 42.6268 172.136 42.7402C173.567 43.1952 174.063 44.2547 173.3 45.2213C172.784 45.8645 171.564 46.1867 169.637 46.1674C167.749 46.1481 166.223 45.7136 164.926 44.8038C164.487 44.5009 164.029 44.2366 163.934 44.2366C163.839 44.2366 163.362 44.7664 162.885 45.4107L162.008 46.6031L162.713 47.2281C164.468 48.7426 166.986 49.4244 170.324 49.2917C172.937 49.1975 173.891 48.9321 175.264 47.8714C176.599 46.8685 177 46.0165 177 44.1231C177 42.797 176.943 42.4941 176.504 41.8508C175.474 40.317 173.662 39.5025 170.076 39.0102C167.463 38.6698 166.299 38.2342 166.128 37.5524C165.803 36.2841 167.215 35.6215 169.962 35.7543C171.659 35.8484 171.926 35.9244 173.414 36.6811L175.054 37.4957L175.779 36.6437C176.809 35.4699 176.886 35.167 176.218 34.6367C175.417 33.9741 173.547 33.122 172.231 32.7812C170.82 32.4215 168.168 32.4404 166.795 32.8002Z" fill="#575757"/>
<path d="M97.8415 32.9137C97.7843 33.0463 97.7652 36.739 97.7843 41.1123L97.8415 49.0648H99.5582H101.275V40.9229V32.7812L99.5963 32.7244C98.3756 32.6866 97.8987 32.7433 97.8415 32.9137Z" fill="#575757"/>
<path d="M104.518 32.9327C104.46 33.0463 104.441 36.739 104.46 41.1123L104.518 49.0648L106.215 49.1216L107.913 49.1783L107.798 43.4788C107.741 40.3545 107.722 37.7986 107.779 37.7986C107.817 37.7986 108.714 39.0102 109.763 40.4872C110.812 41.9836 112.739 44.5395 114.016 46.1674L116.344 49.159L117.965 49.1023L119.586 49.0648V40.9229V32.7812L117.889 32.7245L116.191 32.6677L116.286 38.3669C116.344 41.4912 116.344 44.0471 116.267 44.0279C116.21 44.0279 115.333 42.873 114.341 41.4526C113.349 40.0334 111.422 37.4764 110.068 35.7724L107.627 32.6866H106.12C105.071 32.6866 104.575 32.7623 104.518 32.9327Z" fill="#575757"/>
<path d="M122.829 32.9326C122.772 33.0463 122.752 36.739 122.772 41.1123L122.829 49.0648H129.505H136.181V47.5503V46.0347L131.183 45.978L126.167 45.9405V44.1413V42.3432H130.459H134.75V40.7334V39.1236L130.516 39.0861L126.262 39.0294L126.205 37.4582L126.148 35.9051H131.031H135.895V34.2959V32.6866H129.409C124.393 32.6866 122.886 32.7433 122.829 32.9326Z" fill="#575757"/>
<path d="M139.137 40.9229V49.1783L140.816 49.1216L142.476 49.0649L142.533 46.9434L142.59 44.8038H145.012L147.435 44.8231L148.484 46.9434L149.533 49.0649L151.402 49.1216C152.413 49.1409 153.252 49.1023 153.252 49.0263C153.252 48.9514 152.661 47.758 151.936 46.3762L150.639 43.877L151.726 42.7596C153.119 41.3585 153.52 40.2411 153.405 38.291C153.252 35.9619 152.07 34.3149 149.819 33.2736C148.789 32.7812 148.675 32.7812 143.963 32.7244L139.137 32.6487V40.9229ZM148.636 36.3408C150.429 37.3062 150.468 39.9767 148.694 41.0556C148.083 41.4345 147.702 41.4912 145.298 41.5661L142.571 41.624V38.7459V35.8678L145.298 35.9438C147.435 36.0005 148.141 36.0754 148.636 36.3408Z" fill="#575757"/>
<path d="M156.4 32.9326C156.343 33.0463 156.324 36.739 156.343 41.1123L156.4 49.0648L158.078 49.1215L159.738 49.1783V40.9228V32.6866H158.117C156.991 32.6866 156.457 32.7622 156.4 32.9326Z" fill="#575757"/>
<path d="M109.098 61.5469H105.987C105.93 61.1444 105.814 60.7869 105.639 60.4744C105.464 60.1572 105.239 59.8873 104.964 59.6648C104.69 59.4422 104.373 59.2718 104.013 59.1534C103.658 59.035 103.272 58.9759 102.855 58.9759C102.102 58.9759 101.446 59.1629 100.888 59.5369C100.329 59.9062 99.8958 60.446 99.5881 61.1562C99.2803 61.8617 99.1264 62.7187 99.1264 63.7273C99.1264 64.7642 99.2803 65.6354 99.5881 66.3409C99.9006 67.0464 100.336 67.5791 100.895 67.9389C101.454 68.2988 102.1 68.4787 102.834 68.4787C103.246 68.4787 103.627 68.4242 103.977 68.3153C104.332 68.2064 104.647 68.0478 104.922 67.8395C105.196 67.6264 105.424 67.3684 105.604 67.0653C105.788 66.7623 105.916 66.4167 105.987 66.0284L109.098 66.0426C109.018 66.7102 108.816 67.3542 108.494 67.9744C108.177 68.59 107.749 69.1416 107.209 69.6293C106.674 70.1122 106.035 70.4957 105.291 70.7798C104.553 71.0592 103.717 71.1989 102.784 71.1989C101.487 71.1989 100.327 70.9053 99.304 70.3182C98.286 69.7311 97.4811 68.8812 96.8892 67.7685C96.3021 66.6558 96.0085 65.3087 96.0085 63.7273C96.0085 62.1411 96.3068 60.7917 96.9034 59.679C97.5 58.5663 98.3097 57.7187 99.3324 57.1364C100.355 56.5492 101.506 56.2557 102.784 56.2557C103.627 56.2557 104.408 56.3741 105.128 56.6108C105.852 56.8475 106.494 57.1932 107.053 57.6477C107.611 58.0975 108.066 58.6491 108.416 59.3026C108.771 59.956 108.999 60.7041 109.098 61.5469ZM111.303 71V56.4545H117.042C118.14 56.4545 119.078 56.651 119.854 57.044C120.636 57.4323 121.23 57.9839 121.637 58.6989C122.049 59.4091 122.255 60.2448 122.255 61.206C122.255 62.1719 122.047 63.0028 121.63 63.6989C121.213 64.3902 120.61 64.9205 119.819 65.2898C119.033 65.6591 118.081 65.8438 116.964 65.8438H113.121V63.3722H116.467C117.054 63.3722 117.541 63.2917 117.93 63.1307C118.318 62.9697 118.607 62.7282 118.796 62.4062C118.99 62.0843 119.087 61.6842 119.087 61.206C119.087 60.723 118.99 60.3158 118.796 59.9844C118.607 59.6529 118.316 59.402 117.923 59.2315C117.534 59.0563 117.044 58.9688 116.452 58.9688H114.379V71H111.303ZM119.158 64.3807L122.773 71H119.379L115.842 64.3807H119.158ZM124.428 56.4545H128.221L132.227 66.2273H132.397L136.403 56.4545H140.195V71H137.212V61.5327H137.092L133.327 70.929H131.296L127.532 61.4972H127.411V71H124.428V56.4545Z" fill="#C2C2C2"/>
</svg>
