<svg xmlns="http://www.w3.org/2000/svg" width="24" height="24" viewBox="0 0 24 24" fill="none">
  <g clip-path="url(#clip0_306_3361)">
    <path d="M15.1164 0C13.7129 0.00125801 12.3296 0.334307 11.0795 0.971956C9.82934 1.6096 8.74778 2.53377 7.92309 3.669C7.09841 4.80424 6.554 6.11834 6.33431 7.50404C6.11462 8.88973 6.22588 10.3077 6.659 11.6422L0.260091 18.0378C0.177543 18.1204 0.112085 18.2184 0.0674582 18.3264C0.0228309 18.4343 -9.1575e-05 18.5499 2.74939e-07 18.6667V23.1111C2.74939e-07 23.3469 0.0936835 23.573 0.260441 23.7397C0.427198 23.9064 0.65337 24 0.8892 24H5.3352C5.57103 24 5.7972 23.9064 5.96396 23.7397C6.13072 23.573 6.2244 23.3469 6.2244 23.1111V21.3333H8.0028C8.23863 21.3333 8.4648 21.2397 8.63156 21.073C8.79832 20.9063 8.892 20.6802 8.892 20.4444V18.6667H10.6704C10.7872 18.6668 10.9029 18.6438 11.0108 18.5992C11.1188 18.5546 11.2169 18.4892 11.2995 18.4067L12.3621 17.3433C13.5842 17.74 14.8778 17.8672 16.1538 17.7161C17.4298 17.565 18.6579 17.1393 19.7535 16.4682C20.8492 15.7972 21.7863 14.8967 22.5004 13.8289C23.2145 12.761 23.6886 11.5512 23.89 10.2826C24.0915 9.014 24.0155 7.71684 23.6674 6.48042C23.3192 5.244 22.7071 4.09769 21.8733 3.12043C21.0394 2.14317 20.0036 1.35817 18.8372 0.819478C17.6707 0.28079 16.4013 0.00121412 15.1164 0ZM15.1164 16C14.2163 16.0015 13.3241 15.8314 12.4877 15.4989C12.3241 15.4279 12.1429 15.4077 11.9677 15.441C11.7925 15.4743 11.6313 15.5595 11.5051 15.6856L10.3025 16.8889H8.0028C7.76697 16.8889 7.5408 16.9825 7.37404 17.1492C7.20728 17.3159 7.1136 17.542 7.1136 17.7778V19.5556H5.3352C5.09937 19.5556 4.8732 19.6492 4.70644 19.8159C4.53968 19.9826 4.446 20.2087 4.446 20.4444V22.2222H1.7784V19.0344L8.31736 12.4989C8.44343 12.3728 8.52866 12.2117 8.56196 12.0365C8.59526 11.8613 8.5751 11.6802 8.50409 11.5167C7.94177 10.1032 7.8477 8.54666 8.23569 7.07576C8.62368 5.60486 9.47329 4.2971 10.6597 3.34456C11.8461 2.39202 13.3069 1.8449 14.8273 1.78356C16.3478 1.72222 17.8479 2.1499 19.1072 3.00378C20.3666 3.85766 21.3189 5.09273 21.8241 6.52759C22.3294 7.96245 22.3611 9.52147 21.9146 10.9757C21.468 12.4299 20.5668 13.7026 19.3432 14.6069C18.1196 15.5113 16.6381 15.9995 15.1164 16ZM18.6732 6.66667C18.6732 6.93038 18.595 7.18816 18.4484 7.40743C18.3019 7.62669 18.0935 7.79759 17.8498 7.89851C17.6061 7.99942 17.3379 8.02583 17.0792 7.97438C16.8205 7.92293 16.5828 7.79595 16.3963 7.60948C16.2097 7.42301 16.0827 7.18543 16.0312 6.92679C15.9798 6.66815 16.0062 6.40006 16.1071 6.15642C16.2081 5.91279 16.379 5.70455 16.5984 5.55804C16.8177 5.41153 17.0756 5.33333 17.3394 5.33333C17.6931 5.33333 18.0324 5.47381 18.2825 5.72386C18.5327 5.97391 18.6732 6.31304 18.6732 6.66667Z" fill="#737373"/>
  </g>
  <defs>
    <clipPath id="clip0_306_3361">
      <rect width="24" height="24" fill="white"/>
    </clipPath>
  </defs>
</svg>