<svg xmlns="http://www.w3.org/2000/svg" width="23" height="23" viewBox="0 0 23 23" fill="none">
  <path fill-rule="evenodd" clip-rule="evenodd" d="M11.5 1.60465C8.87559 1.60465 6.35867 2.64719 4.50293 4.50293C2.64719 6.35867 1.60465 8.87559 1.60465 11.5C1.60465 14.1244 2.64719 16.6413 4.50293 18.4971C6.35867 20.3528 8.87559 21.3953 11.5 21.3953C14.1244 21.3953 16.6413 20.3528 18.4971 18.4971C20.3528 16.6413 21.3953 14.1244 21.3953 11.5C21.3953 8.87559 20.3528 6.35867 18.4971 4.50293C16.6413 2.64719 14.1244 1.60465 11.5 1.60465ZM0 11.5C0 5.14879 5.14879 0 11.5 0C17.8512 0 23 5.14879 23 11.5C23 17.8512 17.8512 23 11.5 23C5.14879 23 0 17.8512 0 11.5ZM10.6035 5.34884H13.1047C14.0267 5.34884 14.9111 5.71514 15.5631 6.36715C16.2151 7.01917 16.5814 7.90349 16.5814 8.82558C16.5814 9.74767 16.2151 10.632 15.5631 11.284C14.9111 11.936 14.0267 12.3023 13.1047 12.3023H10.1628V12.8372H11.5C11.7128 12.8372 11.9169 12.9217 12.0673 13.0722C12.2178 13.2227 12.3023 13.4267 12.3023 13.6395C12.3023 13.8523 12.2178 14.0564 12.0673 14.2069C11.9169 14.3573 11.7128 14.4419 11.5 14.4419H10.1628V16.8488C10.1628 17.0616 10.0783 17.2657 9.92779 17.4162C9.77733 17.5666 9.57326 17.6512 9.36047 17.6512C9.14768 17.6512 8.9436 17.5666 8.79314 17.4162C8.64267 17.2657 8.55814 17.0616 8.55814 16.8488V14.4419H8.2907C8.07791 14.4419 7.87383 14.3573 7.72337 14.2069C7.5729 14.0564 7.48837 13.8523 7.48837 13.6395C7.48837 13.4267 7.5729 13.2227 7.72337 13.0722C7.87383 12.9217 8.07791 12.8372 8.2907 12.8372H8.55814V12.3023H8.2907C8.07791 12.3023 7.87383 12.2178 7.72337 12.0673C7.5729 11.9169 7.48837 11.7128 7.48837 11.5C7.48837 11.2872 7.5729 11.0831 7.72337 10.9327C7.87383 10.7822 8.07791 10.6977 8.2907 10.6977H8.55814V7.39423C8.55814 7.23805 8.55814 7.07651 8.58168 6.92781C8.64362 6.53757 8.82745 6.17694 9.10685 5.89755C9.38624 5.61815 9.74688 5.43432 10.1371 5.37237C10.2858 5.34884 10.4484 5.34884 10.6035 5.34884ZM10.1617 10.6977H13.1036C13.6001 10.6977 14.0763 10.5004 14.4274 10.1494C14.7784 9.79827 14.9757 9.32209 14.9757 8.82558C14.9757 8.32907 14.7784 7.8529 14.4274 7.50181C14.0763 7.15073 13.6001 6.95349 13.1036 6.95349H10.6431C10.5575 6.95331 10.4719 6.95438 10.3864 6.9567C10.331 6.96559 10.2799 6.99164 10.2401 7.03119C10.2004 7.07073 10.1741 7.12176 10.1649 7.17707L10.1628 7.22307C10.1616 7.29367 10.1612 7.36428 10.1617 7.43488V10.6977Z" fill="#737373"/>
</svg>