<svg xmlns="http://www.w3.org/2000/svg" width="66" height="66" viewBox="0 0 66 66" fill="none">
  <path d="M33 8C19.193 8 8 19.193 8 33C8 46.8078 19.193 58 33 58C46.8078 58 58 46.8078 58 33C58 19.193 46.8078 8 33 8ZM33 54.9242C20.9383 54.9242 11.125 45.0617 11.125 32.9999C11.125 20.9382 20.9383 11.1249 33 11.1249C45.0617 11.1249 54.875 20.9382 54.875 32.9999C54.875 45.0616 45.0617 54.9242 33 54.9242ZM42.9773 23.8523L28.3093 38.6125L21.7039 32.007C21.0937 31.3969 20.1046 31.3969 19.4937 32.007C18.8835 32.6172 18.8835 33.6062 19.4937 34.2164L27.2273 41.9508C27.8375 42.5602 28.8265 42.5602 29.4375 41.9508C29.5078 41.8805 29.568 41.8039 29.6227 41.7242L45.1883 26.0625C45.7977 25.4523 45.7977 24.4632 45.1883 23.8523C44.5773 23.2422 43.5883 23.2422 42.9773 23.8523Z" fill="#8F8F8F"/>
</svg>