<svg xmlns="http://www.w3.org/2000/svg" width="66" height="66" viewBox="0 0 66 66" fill="none">
  <path d="M31.625 45.375H34.375V30.25H31.625V45.375ZM33 26.3367C33.4803 26.3367 33.8818 26.1745 34.2045 25.85C34.529 25.5255 34.6912 25.124 34.6912 24.6455C34.6912 24.1652 34.529 23.7627 34.2045 23.4382C33.8818 23.1137 33.4803 22.9515 33 22.9515C32.5197 22.9515 32.1182 23.1137 31.7955 23.4382C31.471 23.7627 31.3088 24.1652 31.3088 24.6455C31.3088 25.124 31.471 25.5255 31.7955 25.85C32.1182 26.1745 32.5197 26.3367 33 26.3367ZM33.0083 57.75C29.5873 57.75 26.3697 57.101 23.3558 55.803C20.3436 54.5032 17.7228 52.7395 15.4935 50.512C13.2642 48.2863 11.4996 45.6683 10.1998 42.658C8.89992 39.6477 8.25 36.4311 8.25 33.0083C8.25 29.5873 8.899 26.3697 10.197 23.3558C11.4968 20.3436 13.2605 17.7228 15.488 15.4935C17.7137 13.2642 20.3317 11.4996 23.342 10.1998C26.3523 8.89992 29.5689 8.25 32.9917 8.25C36.4127 8.25 39.6303 8.899 42.6442 10.197C45.6564 11.4968 48.2772 13.2605 50.5065 15.488C52.7358 17.7137 54.5004 20.3317 55.8003 23.342C57.1001 26.3523 57.75 29.5689 57.75 32.9917C57.75 36.4127 57.101 39.6303 55.803 42.6442C54.5032 45.6564 52.7395 48.2772 50.512 50.5065C48.2863 52.7358 45.6683 54.5004 42.658 55.8003C39.6477 57.1001 36.4311 57.75 33.0083 57.75ZM33 55C39.1417 55 44.3437 52.8687 48.6062 48.6062C52.8687 44.3437 55 39.1417 55 33C55 26.8583 52.8687 21.6562 48.6062 17.3937C44.3437 13.1312 39.1417 11 33 11C26.8583 11 21.6562 13.1312 17.3937 17.3937C13.1312 21.6562 11 26.8583 11 33C11 39.1417 13.1312 44.3437 17.3937 48.6062C21.6562 52.8687 26.8583 55 33 55Z" fill="#8F8F8F"/>
</svg>